<?xml version="1.0" encoding="iso-8859-1"?>
<!-- Generator: Adobe Illustrator 13.0.0, SVG Export Plug-In . SVG Version: 6.00 Build 14948)  -->
<!DOCTYPE svg PUBLIC "-//W3C//DTD SVG 1.0//EN" "http://www.w3.org/TR/2001/REC-SVG-20010904/DTD/svg10.dtd">
<svg version="1.0" id="Layer_1" xmlns="http://www.w3.org/2000/svg" xmlns:xlink="http://www.w3.org/1999/xlink" x="0px" y="0px"
	 width="262px" height="204px" viewBox="0 0 262 204" style="enable-background:new 0 0 262 204;" xml:space="preserve">
<g id="book">
	<path id="p_x5F_bo2" style="fill:#D17300;" d="M254.667,111.5l-18.333-22.333L10.5,79.833c0,0,42.063,110.854,42.063,113.042
		l-1,2.75c0.68,1.271,3.063,6.313,5.688,4.792c0,0,38.243-24.802,84.334-51.335c0,0,13.442,0.121,19.5-2.25
		c12.091-4.73,16.397-12.264,16.397-12.264c43.604-11.65,66.518-13.234,75.185-14.734C257.502,118.997,257.083,114.76,254.667,111.5
		z"/>
	<path id="p_x5F_bo" style="fill:#F28500;" d="M253.167,112.167c2.104,3.959-1.823,4.865-3.746,5.112
		c0,0-31.667,3.308-75.271,14.959c0,0-4.313,7.527-16.397,12.263c-6.058,2.371-19.5,2.25-19.5,2.25
		c-46.091,26.533-82.527,50.744-82.527,50.744c-1.677,0.694-2.976,0.381-4.164-1.869L7.514,80.221
		c-1.648-3.568-0.687-5.193,0.861-6.096c0,0,42.353-27.013,86.875-45.625c35.128-14.685,70.721-17.519,70.723-17.522
		C183.5,17,253.167,112.167,253.167,112.167z"/>
	<polygon id="pg_x5F_s" style="fill:#C6A263;" points="14.25,76 60,182.5 61.334,155.832 20.333,58 	"/>
	<path id="pg_x5F_b" style="fill:#E8CF91;" d="M63,154c0,0,52.333-37.999,58.333-38.333s27.642-2.493,27.642-2.493L172.75,91
		l61.355-8.836l4.734,28.645L163.667,125l-12.334,8l-12,2L60,182.5L63,154z"/>
	
		<radialGradient id="pg_x5F_loop_1_" cx="193.6406" cy="520.7061" r="42.0495" gradientTransform="matrix(1 0 0 1 -44 -404)" gradientUnits="userSpaceOnUse">
		<stop  offset="0" style="stop-color:#845507"/>
		<stop  offset="1" style="stop-color:#D4B07A"/>
	</radialGradient>
	<path id="pg_x5F_loop" style="fill:url(#pg_x5F_loop_1_);" d="M140.625,133.625c0,0,0.042-12.124,9.709-16.458
		s12.354,7.583,12.354,7.583l-9.563,9.188L140.625,133.625z"/>
	
		<linearGradient id="pg_x5F_r_1_" gradientUnits="userSpaceOnUse" x1="296.124" y1="460.1211" x2="262.4574" y2="484.4542" gradientTransform="matrix(1 0 0 1 -135 -404)">
		<stop  offset="0" style="stop-color:#FFF4B0"/>
		<stop  offset="0.468" style="stop-color:#FEF2AE"/>
		<stop  offset="0.7568" style="stop-color:#F1E09D"/>
		<stop  offset="1" style="stop-color:#C6A263"/>
	</linearGradient>
	<path id="pg_x5F_r" style="fill:url(#pg_x5F_r_1_);" d="M149.266,113.77L94.099,33.853c-0.352-0.508-0.356-1.177-0.01-1.689
		c0.35-0.521,8.639-12.797,14.352-17.033c7.213-5.353,25.063-6.197,39.407-6.876c7.104-0.335,13.238-0.625,16.479-1.381
		c0.115-0.027,0.229-0.04,0.342-0.04c0.404,0,0.798,0.163,1.084,0.462l69.332,72.335c0.402,0.419,0.525,1.036,0.316,1.577
		c-0.211,0.544-0.721,0.915-1.295,0.957c-0.565,0.04-56.701,4.103-67.813,13.324c-9.705,8.055-14.434,18.061-14.434,18.061
		L149.266,113.77z"/>
	
		<linearGradient id="pg_x5F_l_1_" gradientUnits="userSpaceOnUse" x1="187.7783" y1="508.6055" x2="247.4455" y2="467.2723" gradientTransform="matrix(1 0 0 1 -135 -404)">
		<stop  offset="0" style="stop-color:#FFF4B0"/>
		<stop  offset="0.468" style="stop-color:#FEF2AE"/>
		<stop  offset="0.7568" style="stop-color:#F1E09D"/>
		<stop  offset="1" style="stop-color:#C6A263"/>
	</linearGradient>
	<path id="pg_x5F_l" style="fill:url(#pg_x5F_l_1_);" d="M59.948,154.912L18.656,55.75c0,0,33.367-33.165,53.677-35.5l2.082-0.062
		c9.782,0,18.963,13.397,18.963,13.397l55.599,79.588c-0.002,0.001-1.506,2.336-1.506,2.336s-6.188-1.131-13.47-1.131
		c-7.632,0-13.83,1.24-17.923,3.59c-12.865,7.386-53.855,37.572-53.855,37.572L59.948,154.912z"/>
	<path id="bk_x5F_outline" style="fill:#845507;" d="M242.041,109.122l-3.32-28.873c-0.123-0.932-0.598-1.701-1.188-2.342
		C237.43,77.795,167.915,5.22,167.915,5.22c-0.858-0.896-2.037-1.387-3.248-1.387c-0.342,0-8.417,1.25-16.96,1.425
		c-7.652,0.362-15.854,0.748-23.146,1.758c-7.299,1.029-13.697,2.61-17.907,5.704c-4.833,3.619-10.783,11.697-13.547,15.603
		c-3.645-4.313-10.398-11.034-18.691-11.134c-0.535,0-1.069,0.031-1.596,0.092c-21.621,2.556-41.946,22.788-52.902,33.501
		c-3.292,2.657-4.067,5.701-4.067,5.701l-3.78,17.931c0,0-0.124,0.766-0.039,1.743c0.085,0.977,0.323,1.793,0.323,1.793
		l44.057,103.208c0,0,1.156,3.048,2.526,3.151c1.37,0.106,4.099-1.885,4.099-1.885l76.82-45.996c0,0,5.604,3.108,14.312-0.1
		s10.065-9.915,10.065-9.915l75.781-14.313c0,0,1.481-0.229,1.897-0.771S242.041,109.122,242.041,109.122z M19.417,61
		c0,0,38.055,95.091,38.092,95.167L57.5,173L16.083,76.417L19.417,61z M101.434,27.131c2.756-3.602,6.264-7.732,8.793-9.593
		c4.487-3.429,15.794-5.01,26.998-5.708c10.707-0.72,21.303-0.798,26.938-1.859l66.563,69.448
		c-5.07,0.422-15.604,1.391-26.908,2.981c-7.894,1.11-16.147,2.523-23.217,4.275c-7.07,1.777-12.899,3.789-16.224,6.503
		c-7.228,6-11.822,13.022-13.923,16.666l-9.049-12.743L97.153,32.997C97.957,31.836,99.532,29.605,101.434,27.131z M73.505,23.24
		c0.302-0.036,0.606-0.052,0.91-0.052c3.825-0.043,8.064,2.854,11.228,5.947c1.583,1.533,2.908,3.079,3.827,4.235
		c0.921,1.156,1.419,1.897,1.423,1.897l45.58,65.248l7.946,11.519c0,0-6.292-0.654-10.416-0.654
		c-6.419,0.013-13.804,0.79-19.417,3.989c-11.7,6.727-44.765,30.88-52.501,36.555c-0.049-0.01-0.099-0.016-0.148-0.021L22.11,57.027
		C31.532,47.79,53.189,25.485,73.505,23.24z M161.25,121.5c0,0-1.083,5.5-8.083,9.167s-12.417-0.917-12.417-0.917L63,176.375
		l0.5-19.125c7.013-5.146,42.748-30.188,54.073-36.677c3.485-2.021,9.218-3.202,16.429-3.193c6.984,0.002,13.313,1.108,13.512,1.14
		c0.396,0.063,0.805,0.102,1.213,0.102c2.062,0.054,4.369-1.071,5.801-3.688c0.084-0.162,0.048-0.099,0.102-0.199
		c0.527-1.066,5.012-9.821,13.583-16.933c1.847-1.564,6.08-3.266,11.465-4.702c14.943-4.039,40.319-6.94,53.078-7.969L235,107
		L161.25,121.5z"/>
	<path id="qmark" style="fill:#CC3602;" d="M154.813,20.125c-5.541-0.223-9.076,0.171-15.035,2.503
		c-11.736,4.593-20.8,13.52-21.316,20.946c-0.481,6.918,4.432,12.306,11.67,12.81c7.868,0.547,13.535-5.48,9.066-9.645
		c-1.896-1.762-3.17-2.063-8.396-1.868c-6.926,0.258-7.662-0.39-5.917-5.455c1.482-4.303,8.823-8.996,16.608-12.181
		c12.671-5.186,21.664-1.615,21.049,7.228c-0.139,1.982-0.139,5.691-2.17,10.428c-4.197,9.789-4.305,13.415-0.568,18.537
		c1.283,1.76,2.653,3.223,3.063,3.251c0.407,0.028,0.893-1.854,1.073-4.186c0.207-2.65,1.92-7.186,4.541-12.121
		c4.787-9.023,5.578-14.212,3.074-19.959c-0.918-2.109-3.279-5.084-5.238-6.598C163.257,21.447,160.977,20.373,154.813,20.125z
		 M173.463,68.419c-3.8-0.265-9.104,1.994-7.568,8.84c0.412,1.844,4.895,3.649,8.104,0.854
		C178.046,74.59,176.885,68.657,173.463,68.419z"/>
	<path style="fill:none;stroke:#769F00;" d="M-78.667,144.667"/>
</g>
<g id="wrds" style="opacity:0.25;">
	<g id="words">
		<path style="fill:none;stroke:#845507;stroke-width:3;stroke-linecap:round;" d="M42,80.667c0,0,3.333-8.333,8.667-10.333
			s10.667-0.334,15-2.667s7-10.333,9.667-12S89.667,52,92.667,52"/>
		<path style="fill:none;stroke:#845507;stroke-width:3;stroke-linecap:round;" d="M47.688,93.5c0,0,3.688-9.125,9.021-11.125
			s10.5-0.5,14.833-2.833s6.917-10.25,9.583-11.917c2.667-1.667,16.563-3.5,19.563-3.5"/>
		<path style="fill:none;stroke:#845507;stroke-width:3;stroke-linecap:round;" d="M53.375,106.333c0,0,4.042-9.916,9.375-11.916
			s10.333-0.667,14.667-3.001c4.333-2.332,6.833-10.167,9.5-11.833c2.666-1.666,18.792-3.333,21.792-3.333"/>
		<path style="fill:none;stroke:#845507;stroke-width:3;stroke-linecap:round;" d="M59.063,119.167c0,0,4.396-10.709,9.729-12.709
			s10.167-0.833,14.5-3.167c4.333-2.332,6.75-10.083,9.417-11.75c2.667-1.666,21.021-3.167,24.021-3.167"/>
		<path style="fill:none;stroke:#845507;stroke-width:3;stroke-linecap:round;" d="M64.75,132c0,0,4.75-11.5,10.083-13.5
			s10-1,14.333-3.334c4.333-2.332,6.667-10,9.333-11.666s23.25-3,26.25-3"/>
	</g>
	<path id="title" style="fill:none;stroke:#845507;stroke-width:5;stroke-linecap:round;" d="M33.75,61.75
		c0,0,0.416-7.917,5.75-9.917s10-1,14.333-3.333s6.856-9.73,9.333-11.667C67.75,33.25,75.25,34.5,78.25,34.5"/>
</g>
</svg>
