<?xml version="1.0" encoding="UTF-8"?>
<svg width="500px" height="500px" viewBox="0 0 500 500" version="1.1" xmlns="http://www.w3.org/2000/svg" xmlns:xlink="http://www.w3.org/1999/xlink">
    <!-- Generator: Sketch 51.3 (57544) - http://www.bohemiancoding.com/sketch -->
    <title>logo-gab-02-500x500</title>
    <desc>Created with Sketch.</desc>
    <defs/>
    <g id="logo-gab-02-500x500" stroke="none" stroke-width="1" fill="none" fill-rule="evenodd">
        <path d="M117.3872,178.591467 L163.381867,178.591467 L163.381867,305.0768 C163.381867,365.732267 130.3232,394.7664 80.5914667,394.7664 C57.8816,394.7664 37.7589333,387.0048 25.3978667,376.368533 L43.7957333,341.872533 C54.432,349.0592 64.4933333,353.3712 78.0042667,353.3712 C102.438933,353.3712 117.3872,335.835733 117.3872,310.538667 L117.3872,302.777067 C107.0384,315.138133 92.3776,321.174933 76.2794667,321.174933 C36.8965333,321.174933 7,288.403733 7,247.583467 C7,206.7632 36.8965333,173.992 76.2794667,173.992 C92.3776,173.992 107.0384,180.0288 117.3872,192.389867 L117.3872,178.591467 Z M85.1909333,279.779733 C102.7264,279.779733 117.3872,265.118933 117.3872,247.583467 C117.3872,230.048 102.7264,215.3872 85.1909333,215.3872 C67.6554667,215.3872 52.9946667,230.048 52.9946667,247.583467 C52.9946667,265.118933 67.6554667,279.779733 85.1909333,279.779733 Z M313.2304,316.575467 L267.235733,316.575467 L267.235733,305.0768 C258.324267,315.138133 245.9632,321.174933 229.865067,321.174933 C197.6688,321.174933 179.845867,298.752533 179.845867,273.168 C179.845867,235.2224 226.415467,221.136533 266.6608,233.210133 C265.7984,220.849067 258.0368,211.9376 241.938667,211.9376 C230.727467,211.9376 217.791467,216.2496 209.7424,220.849067 L195.944,187.7904 C206.580267,180.8912 226.128,173.992 248.837867,173.992 C282.471467,173.992 313.2304,192.9648 313.2304,244.7088 L313.2304,316.575467 Z M267.235733,261.9568 C245.675733,255.0576 225.840533,258.794667 225.840533,274.0304 C225.840533,282.941867 233.314667,288.978667 242.226133,288.978667 C252.8624,288.978667 264.936,280.354667 267.235733,261.9568 Z M382.588267,105 L382.588267,192.389867 C392.937067,180.0288 407.597867,173.992 423.696,173.992 C463.078933,173.992 492.975467,206.7632 492.975467,247.583467 C492.975467,288.403733 463.078933,321.174933 423.696,321.174933 C407.597867,321.174933 392.937067,315.138133 382.588267,302.777067 L382.588267,316.575467 L336.5936,316.575467 L336.5936,105 L382.588267,105 Z M414.784533,279.779733 C432.32,279.779733 446.9808,265.118933 446.9808,247.583467 C446.9808,230.048 432.32,215.3872 414.784533,215.3872 C397.249067,215.3872 382.588267,230.048 382.588267,247.583467 C382.588267,265.118933 397.249067,279.779733 414.784533,279.779733 Z" id="gab" fill="#00D178"/>
    </g>
</svg>