<svg id="tamago" xmlns="http://www.w3.org/2000/svg" xmlns:xlink="http://www.w3.org/1999/xlink" viewBox="0 0 660 456.26"><defs><style>.cls-1{fill:#e5e5e5;}.cls-2{fill:url(#名称未設定グラデーション_2);}.cls-3{fill:#3c88d4;}.cls-4{fill:#ffbc3c;}</style><linearGradient id="名称未設定グラデーション_2" x1="330" y1="412.61" x2="330" y2="454.25" gradientUnits="userSpaceOnUse"><stop offset="0" stop-color="#2e6ea3"/><stop offset="1" stop-color="#3c88d4"/></linearGradient></defs><path class="cls-1" d="M371.82,719H628.18c112.1-47.29,192.6-154.75,201.07-281.92H170.75C179.22,564.27,259.72,671.73,371.82,719Z" transform="translate(-170 -307.7)"/><path class="cls-1" d="M170,417.71c0,3.52.12,7,.26,10.54H829.74c.14-3.5.23-7,.26-10.54Z" transform="translate(-170 -307.7)"/><polygon class="cls-2" points="201.82 411.32 201.82 411.32 201.82 456.26 458.18 456.26 458.18 411.32 458.18 411.32 201.82 411.32"/><path class="cls-3" d="M170.26,428.25c.06,1.47.13,2.95.21,4.42v0c.08,1.48.17,2.94.26,4.41H829.27c.09-1.47.18-2.93.26-4.41v0c.08-1.47.15-2.95.21-4.42H170.26Z" transform="translate(-170 -307.7)"/><path class="cls-4" d="M500.56,307.7c-64.05,0-117.69,41.2-131.53,96.47H632.08C618.24,348.9,564.61,307.7,500.56,307.7Z" transform="translate(-170 -307.7)"/></svg>