<svg xmlns="http://www.w3.org/2000/svg" viewBox="0 0 657.41 159.68"><defs><style>.cls-1{fill:#ea67a2;}.cls-2{fill:#fff;}</style></defs><title>logo_full-96e7a97fe469f75a23a74852b2478fa3</title><g id="图层_5" data-name="图层 5"><path class="cls-1" d="M125.79,94.77c-2.88-2.57-6.9-3.92-10.51-5.56-.94-.43-2.34.15-3.53.27a12,12,0,0,0,.91,3.18c2.46,4,5.06,7.87,7.63,11.77,5,7.69,9.06,15.74,9.66,25.16.81,12.75-8.47,22.31-19.93,20.36a2,2,0,0,1-.09-.76c.36-1.38.79-2.74,1.16-4.11,3.17-11.91,3.57-23.85-.43-35.61A74.61,74.61,0,0,0,91.31,79.66c-5.17-5-11.17-8.41-18.58-8.94a4.56,4.56,0,0,1-2.94-2C66.41,63.69,63.13,58.54,60,53.28a4.08,4.08,0,0,1,.09-3.62c3.34-4.72,3.56-10,2.84-15.34C61.82,25.85,60.44,17.4,59.07,9c-.21-1.28-1-2.47-1.94-5-3.43,4.61-6.33,8.21-8.87,12.06A4.16,4.16,0,0,1,43.9,18.3c-5.57-.38-11.17-.6-16.75-.61-2.14,0-3.3-.55-4-2.64C22,11.77,20.61,8.59,19.15,5,15.62,13.86,12.33,22.27,9,30.65s-1.87,15.69,4.86,22a7.79,7.79,0,0,1,2,4.72,148.3,148.3,0,0,1,.66,15.19C16.29,85.29,22.12,95.6,29.85,105c5.6,6.8,9,14.51,11.29,22.83,1.26,4.5,2.33,9,3.73,13.51,1.58,5,2.4,9.49-3.89,11.84a3.79,3.79,0,0,0-1.71,1.56c-.94,1.59-2.47,3.37-2.29,4.91.12,1,2.74,2.44,4.28,2.5,8,.27,16.09.6,24.09.08,9.76-.64,19.38-1,29.16.28a139.52,139.52,0,0,0,25.19,1c9.36-.49,16.15-5.77,19.12-14.78C144.81,130.53,142.18,109.44,125.79,94.77ZM17.67,38.55l6.11-10.13L28,33.92c-1.32,2-1.12,3.84.66,4.82a4,4,0,0,0,2.33.35c.64-.09,1,0,1.3.51s.65.89,1.15,1.56Zm20,2.61a22.54,22.54,0,0,1,1.47-1.93c.17-.17.61-.15.9-.1a3.15,3.15,0,0,0,3.1-.88,3,3,0,0,0,.67-3.14s0-.07,0-.09c-1.07-1-.22-1.73.38-2.5l3.13-4.09,6.13,10.12Z" transform="translate(-7.23 -4)"/><path class="cls-2" d="M98.27,110.26H84.93V6.44h16.24l50.46,80.77h.58l-.58-20V6.44H165V110.26H151.05L98.27,25.58h-.58l.58,20Z" transform="translate(-7.23 -4)"/><path class="cls-2" d="M262.27,39.21,217.75,141.58H204l16.53-35.81L191.22,39.21h14.5l21.17,51h.29l20.59-51Z" transform="translate(-7.23 -4)"/><path class="cls-2" d="M311,36.89q14.79,0,23.34,7.9t8.56,21.68v43.79H330.13V100.4h-.58q-8.26,12.18-22,12.18-11.75,0-19.65-7a22.22,22.22,0,0,1-7.9-17.4q0-11,8.33-17.54t22.26-6.53q11.9,0,19.58,4.35v-3a15.2,15.2,0,0,0-5.51-11.82,18.92,18.92,0,0,0-12.91-4.86q-11.16,0-17.69,9.43l-11.74-7.4Q292,36.89,311,36.89ZM293.73,88.51a10.65,10.65,0,0,0,4.42,8.7,16.29,16.29,0,0,0,10.37,3.48,21.24,21.24,0,0,0,15-6.23,19.53,19.53,0,0,0,6.6-14.65q-6.24-4.92-17.4-4.93-8.13,0-13.56,3.92T293.73,88.51Z" transform="translate(-7.23 -4)"/><path class="cls-2" d="M473.82,39.21l-22.91,71.05H437.28L419.59,55.74,402,110.26H388.56L365.65,39.21h13.92l15.81,53.65h.14l17.54-53.65h13.78l17.54,53.65h.15l15.66-53.65Z" transform="translate(-7.23 -4)"/><path class="cls-2" d="M493.69,74.74q0-16.39,10.29-27.12t26.25-10.73q15.79,0,26.1,10.73t10.44,27.12q0,16.53-10.44,27.11-10.3,10.74-26.1,10.73T504,101.85Q493.69,91.13,493.69,74.74Zm13.34,0q0,11.45,6.67,18.56a22.79,22.79,0,0,0,33.06,0q6.66-7.11,6.67-18.56t-6.67-18.42a22.47,22.47,0,0,0-33.06,0Q507,63.43,507,74.74Z" transform="translate(-7.23 -4)"/><path class="cls-2" d="M591.56,74.74q0-16.39,10.3-27.12T628.1,36.89q15.79,0,26.1,10.73t10.44,27.12q0,16.53-10.44,27.11-10.31,10.74-26.1,10.73t-26.24-10.73Q591.56,91.13,591.56,74.74Zm13.34,0q0,11.45,6.67,18.56a22.79,22.79,0,0,0,33.06,0q6.68-7.11,6.67-18.56t-6.67-18.42a22.47,22.47,0,0,0-33.06,0Q604.9,63.43,604.9,74.74Z" transform="translate(-7.23 -4)"/><polygon class="cls-1" points="10.44 42.33 26.18 45.67 46.22 44 49.77 24.43 38.34 18.33 10.44 21.67 10.44 30.79 10.44 34.55 10.44 42.33"/></g></svg>