<?xml version="1.0" encoding="UTF-8"?>

<svg xmlns="http://www.w3.org/2000/svg" version="1.1" id="Itabashi-don_logo" viewBox="0 0 216.4144 232.00976">
  <defs>
    <style type="text/css">
      #Tokyo *:not(#Mastodon) {
        fill: #3088d4;
        fill-opacity: 1;
        stroke-width: 0.50507629;
      }

      #Tokyo #Itabashi {
        fill: #ff9800;
      }
    </style>
  </defs>

  <g id="Tokyo" transform="matrix(0.79628477,0,0,0.79628477,18.790576,25.515816)">
    <path id="Nerima" d="m 77.84712,543.5432 c -1.117705,-0.8134 -3.995999,-2.44404 -10.227794,-5.79437 -1.732418,-0.93138 -1.894036,-1.20167 -1.894036,-3.1676 0,-1.18213 0.227284,-2.2898 0.505076,-2.46149 0.277792,-0.17168 0.505076,-2.21724 0.505076,-4.54568 0,-2.32845 0.227284,-4.37401 0.505076,-4.54569 0.277792,-0.17169 0.505077,-2.23066 0.505077,-4.57549 0,-2.50551 0.208249,-4.26334 0.505076,-4.26334 0.904847,0 0.550056,-4.43488 -0.505076,-6.31346 -0.555584,-0.98917 -1.010153,-2.1325 -1.010153,-2.54074 0,-0.40824 -0.227284,-0.74225 -0.505076,-0.74225 -0.277792,0 -0.505076,-0.44116 -0.505076,-0.98035 0,-0.53919 -0.200147,-1.10404 -0.444769,-1.25523 -0.244624,-0.15118 -0.554032,-0.84645 -0.687575,-1.54503 -0.186729,-0.97681 -0.03257,-1.27016 0.667499,-1.27016 0.500668,0 1.032631,-0.19792 1.182141,-0.43984 0.149509,-0.24191 0.958418,-0.57715 1.797575,-0.74498 1.161482,-0.2323 1.525739,-0.57968 1.525739,-1.45507 0,-0.85975 0.605387,-1.4652 2.399112,-2.39938 1.319512,-0.6872 2.512755,-1.37828 2.651651,-1.53573 0.138896,-0.15744 0.964963,-0.6226 1.835706,-1.03367 1.349174,-0.63695 5.235361,-4.95436 5.235361,-5.8163 0,-0.15633 0.324692,-0.60893 0.721538,-1.00578 1.074092,-1.07409 4.36622,-0.87341 6.895276,0.42033 3.858523,1.97383 3.796559,1.79549 1.4534,4.183 -1.474079,1.50197 -2.034606,2.44051 -1.808878,3.02875 0.238705,0.62205 0.632487,0.75307 1.457367,0.48489 1.012704,-0.32924 2.992833,-0.6483 9.769947,-1.57424 1.99445,-0.27249 2.113,-0.20923 3.10284,1.65578 0.59121,1.11391 1.32077,1.85463 1.7144,1.74062 0.37688,-0.10917 1.48073,-0.33948 2.453,-0.51182 l 1.76777,-0.31334 0.15294,-3.27625 c 0.0841,-1.80194 0.36822,-3.49218 0.63134,-3.75608 0.26313,-0.2639 0.47841,-0.90637 0.47841,-1.42771 0,-0.93522 0.61305,-0.35231 3.53553,3.36174 2.74068,3.48301 3.71415,4.37759 4.21671,3.87502 0.29206,-0.29205 1.00831,-0.531 1.59167,-0.531 0.58336,0 1.30844,-0.24779 1.61129,-0.55063 0.59603,-0.59604 4.5269,-0.39104 10.51054,0.54813 1.94454,0.30521 4.88446,0.68022 6.53315,0.83336 3.0933,0.28732 5.33614,1.32233 5.33614,2.46249 0,0.35849 0.48684,1.63923 1.08187,2.8461 1.97758,4.01102 2.07228,4.36215 1.70321,6.31503 -0.20167,1.0671 -0.39943,3.98575 -0.43945,6.48588 l -0.0728,4.54568 1.76776,0.14172 c 3.14292,0.25197 4.04061,1.0183 4.04061,3.44936 0,1.18672 -0.22728,2.29815 -0.50507,2.46984 -0.2778,0.17168 -0.50508,1.32152 -0.50508,2.55519 0,2.51758 -0.54367,2.783 -2.52538,1.23288 -1.91839,-1.50058 -3.52816,-1.25665 -5.83286,0.88388 -1.12162,1.04172 -2.99614,2.74636 -4.1656,3.78807 l -2.12628,1.89404 h -5.59077 -5.59076 l -4.38304,-4.28406 c -4.26614,-4.16981 -4.44798,-4.2843 -6.81822,-4.29315 -2.27863,-0.009 -3.87827,0.76464 -3.87827,1.87445 0,0.24225 -0.2841,1.05221 -0.63134,1.7999 -0.49148,1.05828 -0.9884,1.36032 -2.24304,1.36339 -0.88643,0.002 -1.75216,0.23122 -1.92384,0.50901 -0.17169,0.2778 -1.09098,0.50508 -2.04287,0.50508 -0.95189,0 -2.69993,0.22366 -3.884531,0.49703 -1.184602,0.27337 -2.820022,0.62896 -3.634267,0.7902 -0.912793,0.18076 -2.946251,1.71579 -5.3033,4.00339 l -3.822857,3.71022 -2.195152,-0.74775 c -2.539331,-0.86498 -3.613225,-0.6227 -3.613225,0.81518 0,1.334 -1.14105,5.58353 -1.493715,5.56294 -0.150729,-0.009 -0.842263,-0.42951 -1.536743,-0.93491 z" fill="#3088d4" transform="translate(-86.81748,-468.53719)"/>
    <path id="Suginami" d="m 120.50081,588.01162 c -0.2639,-0.23326 -1.27532,-0.72809 -2.24759,-1.0996 -0.97227,-0.37152 -4.8361,-2.13697 -8.58629,-3.92324 -10.339502,-4.92484 -10.068015,-4.82452 -10.439086,-3.85752 -0.173094,0.45108 -0.110772,0.96766 0.138494,1.14797 0.249265,0.18031 0.775362,0.95287 1.169102,1.71679 0.39373,0.76393 0.90476,1.38896 1.13561,1.38896 0.23085,0 0.41973,0.22729 0.41973,0.50508 0,0.27779 -0.78018,0.50508 -1.73373,0.50508 -1.225857,0 -1.801859,-0.25893 -1.966301,-0.88389 -0.127914,-0.48613 -0.518717,-2.0203 -0.868451,-3.40926 -0.759,-3.01435 -1.744552,-4.29315 -3.308672,-4.29315 -0.635031,0 -1.295071,-0.22728 -1.466756,-0.50508 -0.171685,-0.27779 -0.718389,-0.50507 -1.2149,-0.50507 -2.061402,0 -4.532255,-1.80573 -5.935883,-4.33802 -0.51074,-0.92143 -0.400069,-1.16414 0.873983,-1.91674 1.256189,-0.74205 1.375783,-0.99461 0.86117,-1.81864 -0.328682,-0.5263 -1.176543,-1.25476 -1.884135,-1.61879 -0.707592,-0.36403 -1.720539,-1.05348 -2.250992,-1.5321 -0.942698,-0.85059 -0.922753,-0.93304 0.883883,-3.65403 1.01659,-1.5311 1.848345,-2.99565 1.848345,-3.25457 0,-0.25891 0.177958,-0.54652 0.395463,-0.63911 0.217505,-0.0926 0.888557,-1.01536 1.491226,-2.05059 l 1.095762,-1.88222 -3.506632,-3.16854 c -2.938407,-2.6551 -3.507426,-3.4297 -3.511531,-4.78023 -0.0027,-0.88643 0.222386,-1.75216 0.500178,-1.92384 0.277792,-0.17169 0.505076,-0.74618 0.505076,-1.27665 0,-1.00935 0.559792,-0.97957 2.923646,0.15552 1.052803,0.50554 1.526673,0.18617 5.313851,-3.58133 2.286884,-2.27501 4.437329,-4.13638 4.778767,-4.13638 0.341437,0 0.620795,-0.22728 0.620795,-0.50507 0,-0.27779 1.136422,-0.50508 2.525382,-0.50508 1.388956,0 2.525376,-0.22728 2.525376,-0.50508 0,-0.27779 1.13643,-0.50507 2.52539,-0.50507 1.45173,0 2.52538,-0.22899 2.52538,-0.53863 0,-1.02739 2.76262,-0.25385 3.27649,0.91744 0.27422,0.62503 0.67197,1.13642 0.88389,1.13642 0.21192,0 0.3853,0.45457 0.3853,1.01015 0,0.55558 0.22729,1.01015 0.50508,1.01015 0.27779,0 0.50508,0.45457 0.50508,1.01015 0,0.55559 0.22728,1.01016 0.50507,1.01016 0.27779,0 0.50508,0.45457 0.50508,1.01015 0,0.55558 0.22728,1.01015 0.50508,1.01015 0.27779,0 0.50507,0.35043 0.50507,0.77874 0,1.28997 1.54764,2.47597 6.06092,4.64468 9.31518,4.4761 10.79903,5.03821 12.68884,4.80673 2.05145,-0.25128 2.03066,-0.29484 2.95234,6.18483 0.84752,5.95831 1.11521,6.54689 3.06244,6.73353 3.94175,0.37781 3.9364,1.9468 -0.0158,4.63069 -3.0182,2.04962 -3.43241,2.75907 -2.5843,4.42627 0.45953,0.90335 1.335,2.95541 2.20573,5.17018 0.27304,0.69448 0.72816,1.70693 1.01139,2.2499 0.36399,0.69779 0.34671,1.0433 -0.0589,1.17851 -0.31563,0.10522 -0.57388,0.60103 -0.57388,1.10181 0,1.04784 -1.71632,1.94356 -6.81853,3.5585 -1.94454,0.61548 -3.9302,1.32015 -4.41256,1.56593 -0.48237,0.24578 -1.32127,0.44687 -1.86423,0.44687 -0.54296,0 -1.12767,0.22729 -1.29935,0.50508 -0.17169,0.27779 -0.8215,0.50507 -1.44403,0.50507 -0.62252,0 -1.35915,0.22729 -1.63694,0.50508 -0.27779,0.27779 -0.721,0.31422 -0.9849,0.081 z" fill="#3088d4" transform="translate(-86.81748,-468.53719)"/>
    <path id="Nakano" d="m 140.98165,576.93299 c 0,-0.34654 -0.42237,-1.59356 -0.93861,-2.77115 -2.07662,-4.73696 -2.12559,-4.91899 -1.3234,-4.91899 0.41073,0 0.74679,-0.18888 0.74679,-0.41973 0,-0.23085 0.62185,-0.74224 1.38189,-1.13642 2.39437,-1.2418 3.16379,-2.15309 3.16379,-3.74715 0,-1.86222 -1.47934,-3.283 -3.41833,-3.283 -1.17484,0 -1.48235,-0.30717 -2.01453,-2.01235 -0.34543,-1.10679 -0.62805,-2.99325 -0.62805,-4.19213 0,-1.19888 -0.21108,-2.3957 -0.46907,-2.65961 -0.25799,-0.2639 -0.54209,-1.27531 -0.63134,-2.24759 -0.15972,-1.73988 -0.20211,-1.7701 -2.68767,-1.91592 -2.19842,-0.12898 -8.43878,-2.66311 -14.00901,-5.68889 -0.48237,-0.26202 -1.1048,-0.47641 -1.38318,-0.47641 -1.10765,0 -2.66265,-1.94902 -4.43263,-5.55584 -1.02241,-2.08343 -2.03716,-3.86383 -2.255,-3.95643 -0.21784,-0.0926 -0.39607,-0.60398 -0.39607,-1.13642 0,-0.53243 -0.22728,-0.96806 -0.50508,-0.96806 -0.27779,0 -0.50507,-0.34093 -0.50507,-0.75761 0,-0.41669 0.22728,-0.75762 0.50507,-0.75762 0.2778,0 0.50508,-0.40911 0.50508,-0.90914 0,-1.31661 1.00367,-2.12132 2.6458,-2.12132 1.13472,0 2.37322,0.9477 5.9405,4.54569 l 4.50689,4.54569 6.20658,-0.0143 6.20658,-0.0143 2.52538,-2.27525 c 1.38896,-1.25139 3.32088,-3.0064 4.29315,-3.90004 1.47755,-1.35804 1.95434,-1.54293 2.90419,-1.12621 0.62503,0.27422 1.13642,0.67196 1.13642,0.88388 0,0.21192 0.45457,0.38531 1.01015,0.38531 1.04567,0 1.39381,1.2185 0.50508,1.76777 -0.27779,0.17168 -0.50508,0.96718 -0.50508,1.76776 0,0.80059 -0.22728,1.59609 -0.50507,1.76777 -0.27779,0.17169 -0.50508,0.98059 -0.50508,1.79758 0,0.81698 -0.24168,1.48542 -0.53707,1.48542 -0.30169,0 -0.46771,0.71945 -0.37881,1.6415 0.13776,1.42882 0.37553,1.67421 1.8352,1.89403 1.74092,0.26217 1.90737,0.46996 4.16975,5.20528 0.63785,1.33505 1.3286,2.53173 1.53501,2.6593 0.20641,0.12757 1.40689,-0.044 2.66775,-0.3812 2.60826,-0.6976 3.55485,-0.25751 1.91565,0.89064 -0.60828,0.42605 -1.10595,1.21631 -1.10595,1.75615 0,0.53983 -0.22729,0.98151 -0.50508,0.98151 -0.27779,0 -0.50507,1.00936 -0.50507,2.24303 0,1.23367 -0.22729,2.38351 -0.50508,2.55519 -0.27779,0.17169 -0.50508,1.19447 -0.50508,2.27285 0,1.07838 -0.22728,2.10116 -0.50507,2.27284 -0.2778,0.17169 -0.50508,0.81318 -0.50508,1.42553 0,0.7587 -2.25258,3.36166 -7.07107,8.17092 -3.88909,3.88164 -7.07107,6.774 -7.07107,6.42745 z" fill="#3088d4" transform="translate(-86.81748,-468.53719)"/>
    <path id="Setagaya" d="m 131.83165,657.48897 c -2.1458,-1.81961 -3.12348,-2.5798 -4.99213,-3.88162 -0.97227,-0.67734 -2.10869,-1.59403 -2.52538,-2.03707 -0.41669,-0.44304 -1.55311,-1.35548 -2.52538,-2.02764 -0.97228,-0.67216 -2.07155,-1.51713 -2.44284,-1.87772 -0.37128,-0.36058 -1.5077,-1.27591 -2.52538,-2.03405 -1.01767,-0.75815 -1.96396,-1.49926 -2.10285,-1.64691 -0.1389,-0.14765 -1.27532,-1.05604 -2.52538,-2.01865 -1.25007,-0.9626 -2.72742,-2.16926 -3.283,-2.68146 -2.1093,-1.94459 -3.90817,-2.60002 -10.101525,-3.6805 -0.833375,-0.14539 -1.969797,-0.46065 -2.525381,-0.70059 -1.45124,-0.62672 -4.047989,-1.06772 -7.954951,-1.35096 l -3.409265,-0.24716 v -1.61124 c 0,-1.05053 0.535492,-2.26088 1.53879,-3.47806 l 1.538789,-1.86682 -1.665058,-3.17275 c -0.915783,-1.74502 -1.783289,-3.2864 -1.927792,-3.42529 -0.144503,-0.1389 -1.016441,-1.75837 -1.937641,-3.59884 -1.300331,-2.59793 -1.560446,-3.55805 -1.163096,-4.29315 0.281496,-0.52076 0.634912,-1.3446 0.785367,-1.83073 0.199676,-0.64517 0.808872,-0.88389 2.255675,-0.88389 1.341506,0 2.081204,-0.2582 2.288695,-0.79892 0.633941,-1.65202 0.269674,-5.35629 -0.753912,-7.66661 -0.583269,-1.31648 -1.24236,-2.84817 -1.464647,-3.40376 -0.222287,-0.55558 -0.86081,-2.03293 -1.41894,-3.28299 -0.999093,-2.23771 -0.999875,-2.28897 -0.05058,-3.31555 0.558255,-0.60371 0.964972,-1.77326 0.966034,-2.77792 0.0015,-1.41046 -0.400256,-2.08822 -2.146574,-3.62136 l -2.148409,-1.88615 1.404812,-0.008 c 1.634787,-0.009 2.311861,-1.21778 1.452819,-2.59332 -0.321633,-0.51502 -0.584788,-1.46223 -0.584788,-2.10492 0,-0.64269 -0.272741,-1.44127 -0.606091,-1.77462 -0.471405,-0.47141 0.25815,-0.6061 3.282996,-0.6061 2.256007,0 3.889087,0.21209 3.889087,0.50508 0,0.27779 0.681853,0.50508 1.515229,0.50508 0.833376,0 1.515229,0.22728 1.515229,0.50507 0,0.27779 0.638112,0.50508 1.418027,0.50508 1.158987,0 1.574184,0.35393 2.272844,1.93748 0.470148,1.06562 0.854815,2.3944 0.854815,2.95286 0,0.55846 0.357573,1.73215 0.794607,2.6082 0.776871,1.55728 0.872699,1.59283 4.293145,1.59283 3.25381,0 3.49854,-0.0767 3.49854,-1.09665 0,-0.60316 -0.37615,-1.5123 -0.83589,-2.0203 -0.78425,-0.86658 -0.77124,-0.92366 0.21045,-0.92366 0.57549,0 1.1221,0.17047 1.2147,0.37881 0.24249,0.5456 4.42564,2.65165 5.26685,2.65165 0.39044,0 0.70988,0.22728 0.70988,0.50508 0,0.27779 0.45457,0.50507 1.01016,0.50507 0.55558,0 1.01015,0.22729 1.01015,0.50508 0,0.27779 0.31945,0.50507 0.70988,0.50507 0.39044,0 1.69732,0.48685 2.90419,1.08188 4.29274,2.11647 4.45294,2.16482 5.08345,1.53432 0.32773,-0.32774 1.10522,-0.59589 1.72775,-0.59589 0.62253,0 1.27234,-0.22728 1.44402,-0.50508 0.17169,-0.27779 0.85354,-0.50507 1.51523,-0.50507 0.66169,0 1.34354,-0.22729 1.51523,-0.50508 0.17168,-0.27779 0.85354,-0.50508 1.51523,-0.50508 0.66169,0 1.34354,-0.22728 1.51523,-0.50507 0.17168,-0.27779 0.86695,-0.50508 1.54504,-0.50508 0.67808,0 1.23288,-0.22728 1.23288,-0.50507 0,-0.2778 0.68185,-0.50508 1.51523,-0.50508 0.83337,0 1.51522,-0.23724 1.51522,-0.5272 0,-0.33123 1.35482,-0.47204 3.64457,-0.37881 l 3.64457,0.1484 1.93406,3.78807 c 1.06374,2.08344 2.1511,3.86383 2.41635,3.95643 0.26526,0.0926 0.48228,0.38697 0.48228,0.65415 0,0.26719 1.13643,2.1699 2.52539,4.22825 1.38896,2.05835 2.52538,3.98 2.52538,4.27034 0,0.29034 0.22728,0.52789 0.50507,0.52789 0.2778,0 0.50508,0.89572 0.50508,1.99049 0,1.09478 0.22728,2.13097 0.50508,2.30265 0.27779,0.17169 0.50507,1.54881 0.50507,3.06027 0,1.51146 0.22729,2.74811 0.50508,2.74811 0.27779,0 0.50508,0.56821 0.50508,1.26269 0,0.69448 -0.22729,1.26269 -0.50508,1.26269 -0.27779,0 -0.50508,0.45766 -0.50508,1.01701 0,0.55935 -0.22728,1.46849 -0.50507,2.0203 l -1.01016,2.0066 c -0.27779,0.55182 -0.50507,1.46095 -0.50507,2.02031 0,0.55935 -0.22729,1.017 -0.50508,1.017 -0.27779,0 -0.50508,0.42674 -0.50508,0.94831 0,1.37612 -1.23172,2.24529 -2.35953,1.665 -0.5079,-0.26133 -1.60531,-0.75546 -2.43869,-1.09808 -0.83338,-0.34261 -1.90989,-0.8237 -2.39226,-1.06908 -0.48237,-0.24538 -1.22104,-0.44615 -1.6415,-0.44615 -0.42045,0 -0.76446,-0.22728 -0.76446,-0.50507 0,-0.27779 -0.44116,-0.50508 -0.98035,-0.50508 -0.53919,0 -1.12081,-0.22728 -1.2925,-0.50508 -0.17168,-0.27779 -0.98059,-0.50507 -1.79757,-0.50507 -1.13365,0 -1.48542,0.23216 -1.48542,0.98034 0,0.53919 0.22728,1.12082 0.50507,1.2925 0.27779,0.17169 0.50508,0.96718 0.50508,1.76777 0,0.80059 0.22728,1.59608 0.50508,1.76777 0.27779,0.17168 0.50507,0.96718 0.50507,1.76776 0,0.80059 0.22729,1.59608 0.50508,1.76777 0.27779,0.17169 0.50507,0.8215 0.50507,1.44402 0,0.62253 0.27842,1.41028 0.6187,1.75057 0.48821,0.48821 0.48821,0.82764 0,1.60939 -0.34028,0.54488 -0.6187,1.43493 -0.6187,1.97789 0,0.54296 -0.22728,1.12766 -0.50507,1.29935 -0.27779,0.17169 -0.50508,0.75639 -0.50508,1.29935 0,0.54296 -0.28245,1.43947 -0.62766,1.99224 -0.46422,0.74334 -0.48314,1.23476 -0.0727,1.88719 0.45522,0.72356 1.44583,0.9083 5.5106,1.02771 5.31617,0.15618 6.25145,0.60526 6.28535,3.01801 0.009,0.6288 0.29447,1.58908 0.63476,2.13396 0.48821,0.78176 0.48821,1.12118 0,1.60939 -0.34029,0.34029 -0.6187,1.37587 -0.6187,2.3013 0,2.33419 -1.17433,2.62774 -2.94201,0.73543 -2.38869,-2.55709 -4.81054,-3.63021 -8.1928,-3.63021 -2.62602,0 -3.38186,0.23835 -5.75732,1.81558 -3.3915,2.25182 -3.69509,2.95114 -1.77384,4.08605 0.82136,0.48518 1.49338,1.17408 1.49338,1.53087 0,0.91988 -0.56027,0.78415 -2.07894,-0.50366 z" fill="#3088d4" transform="translate(-86.81748,-468.53719)"/>
    <path id="Meguro" d="m 152.59841,645.61038 c 0,-0.61114 -0.22729,-1.11117 -0.50508,-1.11117 -0.27779,0 -0.50507,-0.45457 -0.50507,-1.01015 0,-0.94721 -0.33672,-1.01015 -5.40432,-1.01015 -4.20336,0 -5.26963,-0.13469 -4.79822,-0.60609 0.33335,-0.33335 0.60609,-1.11543 0.60609,-1.73796 0,-0.62253 0.22728,-1.27234 0.50507,-1.44402 0.2778,-0.17169 0.50508,-0.85354 0.50508,-1.51523 0,-0.66169 0.22728,-1.34355 0.50508,-1.51523 0.62868,-0.38855 0.65376,-2.00047 0.0492,-3.16358 -0.25071,-0.48237 -0.72744,-1.89981 -1.05938,-3.14987 -0.33194,-1.25007 -0.80866,-2.66751 -1.05938,-3.14988 -0.49004,-0.94282 -0.62287,-2.91104 -0.19645,-2.91104 0.26442,0 1.12724,0.39431 3.14302,1.43637 0.62126,0.32117 1.47357,0.58394 1.89403,0.58394 0.42046,0 0.76447,0.22728 0.76447,0.50507 0,0.27779 0.34401,0.50508 0.76447,0.50508 0.74174,0 1.27796,0.21113 3.64809,1.43637 1.6129,0.83379 2.15343,0.72681 2.15343,-0.42622 0,-0.55558 0.1862,-1.01015 0.41377,-1.01015 0.22758,0 0.72323,-1.13642 1.10146,-2.52538 0.37823,-1.38896 0.87388,-2.52539 1.10146,-2.52539 0.22757,0 0.41377,-0.68185 0.41377,-1.51522 0,-0.83338 0.22728,-1.51523 0.50508,-1.51523 0.27779,0 0.50507,-0.44116 0.50507,-0.98035 0,-0.53919 0.22729,-1.12081 0.50508,-1.2925 0.27779,-0.17168 0.50507,-1.3081 0.50507,-2.52538 0,-1.21727 -0.22728,-2.35369 -0.50507,-2.52538 -0.27779,-0.17168 -0.50508,-1.53539 -0.50508,-3.03046 0,-1.49506 -0.22728,-2.85877 -0.50507,-3.03045 -0.2778,-0.17169 -0.50508,-1.05138 -0.50508,-1.95488 0,-0.94458 -0.42931,-2.10353 -1.01015,-2.72699 -0.55559,-0.59635 -1.01016,-1.4347 -1.01016,-1.86301 0,-0.4283 -0.19971,-0.77873 -0.4438,-0.77873 -0.24409,0 -0.72623,-0.68185 -1.07143,-1.51523 -0.34519,-0.83337 -0.82733,-1.51523 -1.07142,-1.51523 -0.24409,0 -0.4438,-0.29529 -0.4438,-0.65619 0,-0.45399 0.58365,-0.59998 1.89403,-0.47376 2.7825,0.26802 4.13228,1.06263 6.9448,4.08836 1.38896,1.49426 5.11664,5.41738 8.28374,8.71805 l 5.75835,6.00121 h 2.44914 c 2.59018,0 3.20951,0.76049 1.66394,2.04319 -1.65343,1.37223 -1.78472,2.357 -0.80248,6.01934 l 0.95325,3.55423 h -1.16821 c -0.64251,0 -1.30868,0.22728 -1.48036,0.50507 -0.17169,0.27779 -0.96718,0.50508 -1.76777,0.50508 -0.80059,0 -1.58056,0.20217 -1.73328,0.44927 -0.15271,0.2471 -1.01844,0.57724 -1.92384,0.73365 -5.52468,0.95437 -6.44441,1.335 -6.44441,2.66699 0,0.40096 0.52241,0.69578 1.23289,0.69578 0.67808,0 1.37335,0.22728 1.54503,0.50507 0.17169,0.27779 0.75331,0.50508 1.2925,0.50508 0.53919,0 0.98035,0.11167 0.98035,0.24817 0,0.23343 -2.73211,3.9878 -4.32612,5.94479 -0.41411,0.5084 -0.72465,1.97123 -0.72465,3.41354 0,2.46898 -0.0247,2.51006 -1.13642,1.88826 -0.62503,-0.34959 -1.25006,-0.75941 -1.38896,-0.91071 -0.60299,-0.65685 -4.16326,-2.50283 -4.82709,-2.50283 -0.56554,0 -0.72875,0.7918 -0.72875,3.53553 0,3.35254 -0.0601,3.53554 -1.16167,3.53554 -0.63892,0 -1.43442,0.27274 -1.76777,0.60609 -0.4714,0.4714 -0.60609,0.35916 -0.60609,-0.50508 z" fill="#3088d4" transform="translate(-86.81748,-468.53719)"/>
    <path id="Shinagawa" d="m 211.69233,662.86391 c 0,-1.15849 -0.32688,-2.08649 -0.88388,-2.50932 -1.05595,-0.80158 -9.49865,-0.96917 -9.97526,-0.19801 -0.17168,0.27779 -1.16242,0.50507 -2.20163,0.50507 -1.03922,0 -2.13333,0.24384 -2.43135,0.54187 -0.29803,0.29803 -1.30944,0.46849 -2.24759,0.37881 -1.3873,-0.13262 -1.73477,-0.39878 -1.8613,-1.42575 -0.0856,-0.69448 -0.49398,-2.00137 -0.90758,-2.90419 -0.89838,-1.96102 -2.31236,-2.13964 -4.99776,-0.63135 -2.28391,1.2828 -3.283,1.28071 -3.283,-0.007 0,-0.55935 -0.21239,-1.41167 -0.47199,-1.89404 -0.2596,-0.48236 -0.76965,-1.6157 -1.13345,-2.51852 -0.38166,-0.94717 -1.02397,-1.6415 -1.5185,-1.6415 -0.47138,0 -0.99752,-0.22729 -1.1692,-0.50508 -0.17169,-0.27779 -1.82632,-0.50507 -3.67697,-0.50507 h -3.36481 l -2.91883,-2.88838 c -2.76123,-2.73242 -2.91884,-3.02138 -2.91884,-5.3516 0,-2.19514 1.0607,-4.67414 2.52538,-5.90216 0.16567,-0.1389 0.84752,-1.04803 1.51523,-2.0203 0.66771,-0.97228 1.45226,-1.93176 1.74343,-2.1322 0.92976,-0.64001 -0.46469,-2.13899 -2.30081,-2.47327 -1.0462,-0.19047 -1.28373,-0.33826 -0.60885,-0.37881 0.60864,-0.0366 1.24708,-0.29377 1.41877,-0.57156 0.17169,-0.2778 1.09424,-0.50508 2.05011,-0.50508 0.95588,0 1.73796,-0.22728 1.73796,-0.50508 0,-0.27779 0.75004,-0.50507 1.66675,-0.50507 0.91672,0 1.88268,-0.20804 2.14658,-0.46231 0.2639,-0.25427 1.04803,-0.53838 1.74251,-0.63135 1.38364,-0.18522 2.03938,-2.11975 1.05292,-3.10622 -0.30132,-0.30131 -0.54784,-1.18732 -0.54784,-1.96891 0,-0.78158 -0.26718,-1.84889 -0.59374,-2.37178 -0.47572,-0.76175 -0.43269,-1.11176 0.21647,-1.76092 1.10468,-1.10468 1.38742,-1.02088 1.38742,0.41119 0,2.49017 0.42165,2.81923 3.61253,2.81923 3.70301,0 4.45861,0.65497 7.63407,6.61738 l 2.25908,4.24176 2.71734,-0.14387 c 1.49454,-0.0791 5.44475,-0.25909 8.77826,-0.39991 4.83201,-0.20411 6.18892,-0.42493 6.69226,-1.08908 0.51968,-0.68572 0.63134,-0.0108 0.63134,3.81602 0,4.09794 0.41637,6.06458 1.51604,7.16075 0.13933,0.1389 0.59354,0.93439 1.00934,1.76777 0.41581,0.83337 0.87001,1.62887 1.00935,1.76776 0.13934,0.1389 0.55882,0.79507 0.93219,1.45816 0.37335,0.66309 1.11203,1.96998 1.64149,2.90419 0.52947,0.93421 1.44145,2.55089 2.02663,3.59261 0.58519,1.04172 1.29247,2.17524 1.57174,2.51895 0.66336,0.81641 0.13437,2.153 -0.85209,2.153 -0.42541,0 -0.77347,0.22729 -0.77347,0.50508 0,0.27779 -0.79549,0.50507 -1.76777,0.50507 -0.97227,0 -1.76776,-0.22728 -1.76776,-0.50507 0,-0.27779 -0.56821,-0.50508 -1.26269,-0.50508 -1.25334,0 -1.26269,0.0337 -1.26269,4.54569 v 4.54568 h -1.76777 c -1.69652,0 -1.76777,-0.0741 -1.76777,-1.83835 z" fill="#3088d4" transform="translate(-86.81748,-468.53719)"/>
    <path id="Ota" d="m 242.12318,722.09918 c -0.62503,-0.30956 -1.13642,-0.73622 -1.13642,-0.94814 0,-0.21192 -0.34093,-0.38531 -0.75762,-0.38531 -0.41669,0 -0.75761,-0.22728 -0.75761,-0.50508 0,-0.27779 -0.24316,-0.50507 -0.54034,-0.50507 -0.2972,0 -1.53139,-0.68185 -2.74266,-1.51523 -1.21127,-0.83338 -2.34132,-1.51523 -2.51123,-1.51523 -0.16991,0 -0.79685,-0.45457 -1.39319,-1.01015 -0.59636,-0.55559 -1.38235,-1.01015 -1.74665,-1.01015 -0.36431,0 -0.66238,-0.18888 -0.66238,-0.41973 0,-0.23085 -0.62503,-0.74224 -1.38896,-1.13642 -0.76393,-0.39419 -1.82956,-1.11445 -2.36808,-1.60058 -0.53852,-0.48614 -1.27719,-0.88388 -1.6415,-0.88388 -0.36431,0 -0.66238,-0.22729 -0.66238,-0.50508 0,-0.27779 -0.29807,-0.50508 -0.66237,-0.50508 -0.36431,0 -1.11456,-0.39774 -1.66722,-0.88388 -0.55266,-0.48614 -1.50465,-1.16799 -2.11554,-1.51523 -0.61089,-0.34724 -1.61052,-0.91545 -2.22141,-1.26269 -0.61089,-0.34724 -1.53922,-1.00705 -2.06297,-1.46625 -1.23057,-1.07891 -3.76038,-1.47573 -11.24373,-1.76366 l -6.08365,-0.23407 -1.61417,1.54258 c -0.88779,0.84843 -1.91185,1.54259 -2.27568,1.54259 -0.93281,0 -3.37962,-1.18677 -3.38435,-1.6415 -0.008,-0.79615 -2.89373,-0.3324 -3.9282,0.63135 -0.59635,0.55558 -1.30211,1.01015 -1.56837,1.01015 -0.26626,0 -0.55987,0.17867 -0.65247,0.39705 -0.44729,1.05488 -3.52894,2.63341 -5.14101,2.63341 -0.98244,0 -1.92673,0.22728 -2.09841,0.50508 -0.17169,0.27779 -1.62404,0.50507 -3.22746,0.50507 -2.67006,0 -2.97552,-0.11684 -3.63119,-1.38896 -0.39374,-0.76392 -0.82989,-1.5026 -0.96923,-1.64149 -0.13934,-0.1389 -0.52946,-0.74806 -0.86694,-1.3537 -0.53105,-0.953 -0.34419,-1.6249 1.38896,-4.99426 1.10141,-2.14122 2.00256,-4.06995 2.00256,-4.28609 0,-0.21613 -0.68186,-0.69478 -1.51523,-1.06367 -0.83338,-0.36889 -1.51523,-0.84251 -1.51523,-1.05249 0,-0.20998 -0.45457,-0.38178 -1.01015,-0.38178 -0.55559,0 -1.01193,-0.17046 -1.0141,-0.37881 -0.002,-0.20834 -0.51355,-0.62216 -1.13642,-0.9196 -4.61178,-2.20227 -10.51753,-5.49571 -11.10673,-6.19385 -0.3906,-0.46282 -1.804,-3.34162 -3.14089,-6.39734 -1.33689,-3.05571 -3.27356,-7.37411 -4.30372,-9.59644 -1.03016,-2.22234 -2.19033,-4.77929 -2.57817,-5.68211 -0.38783,-0.90283 -0.99059,-1.6415 -1.33947,-1.6415 -0.34887,0 -0.63432,-0.22729 -0.63432,-0.50508 0,-0.27779 -0.68185,-0.50507 -1.51523,-0.50507 -0.83337,0 -1.51522,-0.21219 -1.51522,-0.47153 0,-0.25934 -0.60211,-0.54345 -1.33802,-0.63135 -1.51085,-0.18046 -2.87925,-1.90131 -1.81871,-2.28715 1.33294,-0.48493 0.17533,-2.3871 -1.67722,-2.75597 -0.8051,-0.16031 -0.62493,-0.43308 1.03685,-1.5697 3.74561,-2.56192 7.76159,-1.70082 12.26902,2.63071 1.46495,1.40778 2.83014,2.55961 3.03375,2.55961 0.48785,0 1.62631,-3.68603 1.62631,-5.26554 0,-0.68246 0.22728,-1.38131 0.50507,-1.55299 0.2778,-0.17169 0.50508,-0.96201 0.50508,-1.75627 0,-2.08074 0.48282,-3.04196 1.52796,-3.04196 2.15794,0 2.51265,-0.51076 2.51265,-3.61813 v -3.00497 l 1.63225,0.91244 c 0.89774,0.50184 1.92186,1.18165 2.27583,1.51069 0.35397,0.32905 1.03999,0.73292 1.52448,0.89751 0.48449,0.16458 2.47188,1.88214 4.41643,3.81679 l 3.53553,3.51754 2.87131,0.004 c 3.38761,0.005 5.3778,0.65667 5.77589,1.89082 0.84559,2.62152 2.38988,6.24512 2.75863,6.47302 0.23231,0.14357 0.82937,0.0432 1.3268,-0.22311 0.49744,-0.26628 1.86462,-0.83804 3.03817,-1.27058 2.02167,-0.74511 2.16095,-0.73559 2.65165,0.1813 0.28486,0.53225 0.51791,1.28868 0.51791,1.68095 0,0.39227 0.35758,1.42999 0.79461,2.30604 0.78779,1.57918 1.88756,2.05992 2.48839,1.08776 0.17168,-0.2778 1.19446,-0.50508 2.27284,-0.50508 1.07838,0 2.08632,-0.20328 2.23987,-0.45172 0.15355,-0.24845 1.24656,-0.59959 2.42892,-0.7803 8.28907,-1.26696 9.97842,-0.86883 9.97842,2.3516 v 1.95906 l 3.15673,-0.15038 3.15673,-0.15036 0.1464,-4.14911 0.14642,-4.1491 1.77747,0.84762 c 1.0873,0.5185 1.91298,0.65868 2.12644,0.36103 0.19192,-0.26762 1.05097,-0.87553 1.909,-1.35091 1.79594,-0.99502 2.7331,-0.47944 2.7331,1.50362 0,1.64976 -0.83734,3.06193 -3.11066,5.24614 -1.06706,1.02522 -1.9401,2.22279 -1.9401,2.66126 0,0.43847 -0.2948,0.79721 -0.65511,0.79721 -0.36031,0 -1.54286,0.90914 -2.62789,2.02031 -1.96564,2.013 -1.9869,2.0203 -5.88107,2.0203 -2.14956,0 -4.04877,0.22729 -4.22045,0.50508 -0.17221,0.27864 -2.43652,0.50507 -5.05076,0.50507 -2.61425,0 -4.87856,0.22643 -5.05077,0.50508 -0.17184,0.27806 -2.42058,0.50508 -5.00297,0.50508 -4.67178,0 -8.26979,0.97529 -7.59943,2.05994 0.15821,0.25599 3.79715,0.46544 8.08653,0.46544 h 7.79887 v 1.70344 c 0,1.76218 0.34846,2.15893 6.55044,7.458 l 2.15099,1.83783 1.90007,-1.0142 1.90008,-1.01421 2.15848,2.09474 c 2.14036,2.07715 2.16634,2.08632 3.09312,1.09153 0.51405,-0.55177 0.93464,-1.1426 0.93464,-1.31295 0,-0.17035 0.28411,-0.60906 0.63135,-0.97491 1.19773,-1.26191 2.39911,-2.81056 2.39911,-3.09259 0,-0.62549 1.36497,-1.58554 2.78679,-1.9601 0.82849,-0.21825 3.23703,-0.49847 5.35229,-0.62271 3.38772,-0.19897 3.8828,-0.11625 4.15528,0.69431 0.17013,0.50611 1.91023,3.42032 3.86688,6.47603 1.95665,3.05572 3.71187,5.89677 3.90048,6.31346 0.18861,0.41669 0.52947,0.9849 0.75747,1.26269 1.00931,1.22973 4.43462,6.89967 4.43462,7.34065 0,0.26841 0.22729,0.48803 0.50508,0.48803 0.27779,0 0.50507,0.29807 0.50507,0.66238 0,0.3643 0.39775,1.11455 0.88389,1.66721 1.37129,1.55895 2.22181,3.22625 1.64577,3.22625 -0.28014,0 -0.50935,0.45457 -0.50935,1.01015 0,0.55559 -0.22729,1.01016 -0.50508,1.01016 -0.27779,0 -0.50507,0.45456 -0.50507,1.01015 0,0.55558 -0.22729,1.01015 -0.50508,1.01015 -0.27779,0 -0.50508,0.45457 -0.50508,1.01015 0,0.55559 -0.22728,1.01016 -0.50507,1.01016 -0.27779,0 -0.50508,0.45456 -0.50508,1.01015 0,0.55558 -0.22728,1.01015 -0.50507,1.01015 -0.2778,0 -0.50508,0.45457 -0.50508,1.01015 0,0.55559 -0.22729,1.01016 -0.50508,1.01016 -0.27779,0 -0.50507,0.45456 -0.50507,1.01015 0,0.55558 -0.22729,1.01015 -0.50508,1.01015 -0.27779,0 -0.50508,0.45457 -0.50508,1.01015 0,1.11362 -0.22182,1.15148 -1.89403,0.3233 z" fill="#3088d4" transform="translate(-86.81748,-468.53719)"/>
    <path id="Island1" d="m 215.15503,679.85478 c -3.34988,-3.12707 -2.98634,-3.51719 3.28765,-3.52803 l 4.47751,-0.008 -0.90196,1.38896 c -0.49608,0.76393 -1.37453,2.12482 -1.95212,3.0242 -0.5776,0.89939 -1.31023,1.63806 -1.62808,1.6415 -0.31786,0.003 -1.7952,-1.13007 -3.283,-2.5189 z" fill="#3088d4" transform="translate(-86.81748,-468.53719)"/>
    <path id="Island2" d="m 220.78371,670.22203 c 0,-1.9633 1.02081,-2.99438 2.96457,-2.99438 0.83682,0 1.66196,-0.22729 1.83365,-0.50508 0.17169,-0.27779 0.85354,-0.50508 1.51523,-0.50508 0.66169,0 1.34354,-0.22728 1.51523,-0.50507 0.55492,-0.89788 2.09477,-0.53636 2.68914,0.63134 0.31814,0.62503 0.93633,1.62639 1.37375,2.22523 0.73988,1.01291 0.71617,1.16254 -0.34007,2.14657 -1.00022,0.93185 -1.75537,1.05777 -6.34344,1.05777 h -5.20806 z" fill="#3088d4" transform="translate(-86.81748,-468.53719)"/>
    <path id="Island3" d="m 205.7087,679.92158 c -1.31748,-1.14265 -1.38901,-2.00484 -0.20355,-2.45373 0.48613,-0.18408 1.18422,-0.63152 1.5513,-0.9943 0.95306,-0.9419 1.65913,-0.81588 1.96416,0.35054 0.14528,0.55559 0.46493,1.01016 0.71032,1.01016 0.65657,0 0.54301,1.72143 -0.15992,2.42436 -0.89016,0.89016 -2.62155,0.73908 -3.86231,-0.33703 z" fill="#3088d4" transform="translate(-86.81748,-468.53719)"/>
    <path id="Island4" d="m 234.04701,646.19836 c -0.33099,-0.81184 -1.81972,-3.38045 -5.81495,-10.03291 -0.5005,-0.83337 -1.04393,-1.91297 -1.20763,-2.39911 -0.16369,-0.48613 -0.4984,-0.88388 -0.74379,-0.88388 -0.2454,0 -0.44617,-0.35716 -0.44617,-0.79369 0,-0.43653 -0.33127,-1.12496 -0.73616,-1.52985 -0.94243,-0.94243 -0.59466,-1.81454 1.13081,-2.83573 0.75521,-0.44697 1.91928,-1.28725 2.58682,-1.86731 1.36299,-1.18436 1.86061,-1.29583 2.33783,-0.52367 0.18049,0.29203 -0.26319,1.07901 -0.98595,1.74884 l -1.3141,1.21788 1.89964,3.04621 c 1.0448,1.67542 3.00664,4.76807 4.35963,6.87255 l 2.46,3.82633 -0.89652,1.98812 c -1.19483,2.64967 -2.12122,3.41285 -2.62946,2.16622 z" fill="#3088d4" transform="translate(-86.81748,-468.53719)"/>
    <path id="Island5" d="m 239.9766,635.47264 c 0,-0.24215 -1.12005,-2.15602 -2.48901,-4.25306 -2.06465,-3.16273 -2.35039,-3.86599 -1.67593,-4.1248 0.82502,-0.3166 3.09958,1.91268 3.13663,3.07418 0.01,0.31323 0.38277,0.8721 0.82839,1.24194 1.05602,0.87642 1.76429,2.77611 1.39441,3.74002 -0.31302,0.81571 -1.19449,1.05313 -1.19449,0.32172 z" fill="#3088d4" transform="translate(-86.81748,-468.53719)"/>
    <path id="Island6" d="m 271.4176,635.33652 c -0.34724,-0.34968 -0.63134,-0.88594 -0.63134,-1.19169 0,-0.30575 -0.28411,-1.16766 -0.63135,-1.91535 -0.46034,-0.99122 -1.00756,-1.36051 -2.0203,-1.36339 -1.19949,-0.003 -1.38896,-0.20657 -1.38896,-1.48936 0,-0.81698 -0.22729,-1.62589 -0.50508,-1.79757 -0.27779,-0.17169 -0.50508,-1.20788 -0.50508,-2.30265 0,-1.63361 0.17578,-1.9905 0.98035,-1.9905 0.53919,0 1.12081,-0.22728 1.2925,-0.50508 0.17168,-0.27779 1.7209,-0.50507 3.44271,-0.50507 h 3.13056 l -0.18077,2.27284 c -0.0994,1.25006 -0.36228,2.27284 -0.58413,2.27284 -0.22184,0 -0.52992,0.96596 -0.68461,2.14658 -0.77946,5.94907 -1.06771,7.01973 -1.7145,6.3684 z" fill="#3088d4" transform="translate(-86.81748,-468.53719)"/>
    <path id="Koto" d="m 242.90193,627.41883 c -0.38781,-0.46741 -1.26148,-1.70059 -1.94149,-2.74041 -1.31043,-2.00382 -2.70647,-2.40737 -4.48521,-1.29653 -0.75466,0.47129 -1.1346,0.45795 -1.76091,-0.0618 -0.43925,-0.36454 -0.79863,-0.85459 -0.79863,-1.08899 0,-0.42815 -3.57176,-6.24304 -4.53542,-7.38376 -0.28344,-0.33552 -0.51534,-0.80405 -0.51534,-1.04118 0,-0.23714 -0.39775,-0.88334 -0.88389,-1.436 -2.02129,-2.2979 -2.14816,-2.98642 -0.74191,-4.02634 1.44179,-1.06619 4.25934,-3.32778 4.65625,-3.73747 0.1389,-0.14336 1.57995,-1.37537 3.20234,-2.73779 2.90033,-2.4356 2.9444,-2.51182 2.62786,-4.54569 -0.29995,-1.92733 -0.83731,-6.56102 -1.57834,-13.61033 -0.1975,-1.87878 -0.10857,-3.15761 0.24411,-3.51029 0.30514,-0.30513 0.5548,-0.95699 0.5548,-1.44856 0,-0.49158 0.45456,-1.7031 1.01015,-2.69227 0.55558,-0.98917 1.01015,-2.20069 1.01015,-2.69227 0,-0.49157 0.24663,-1.1404 0.54806,-1.44183 0.39402,-0.39403 0.3194,-0.99022 -0.26551,-2.12132 l -0.81357,-1.57326 h 1.75093 c 0.96301,0 1.8914,0.22728 2.06309,0.50507 0.17168,0.27779 1.88973,0.50508 3.81788,0.50508 2.00043,0 3.50572,0.21687 3.50572,0.50508 0,0.27779 0.68186,0.50507 1.51523,0.50507 1.17851,0 1.51523,-0.22448 1.51523,-1.01015 0,-0.55559 0.19887,-1.01015 0.44194,-1.01015 0.24307,0 0.5715,-0.62504 0.72984,-1.38896 0.34188,-1.64937 2.22796,-2.65165 4.98983,-2.65165 h 1.91961 v -3.50573 c 0,-1.92815 -0.22728,-3.64619 -0.50508,-3.81788 -0.27779,-0.17168 -0.50507,-1.64219 -0.50507,-3.2678 v -2.95564 l 3.15673,1.1583 c 7.10434,2.60681 8.39326,3.25674 12.62389,6.36553 l 4.41641,3.2453 -0.24035,5.80837 c -0.13219,3.19461 -0.37851,11.14956 -0.54738,17.67767 -0.29807,11.52261 -0.34139,11.90618 -1.48335,13.13199 -1.30522,1.40107 -1.61067,3.54553 -2.06832,14.52094 l -0.258,6.18718 h -1.7389 -1.7389 v -5.05076 -5.05076 h -2.49557 c -1.37257,0 -2.63605,0.22728 -2.80773,0.50507 -0.17169,0.2778 -1.43516,0.50508 -2.80773,0.50508 -1.37256,0 -2.49557,0.22728 -2.49557,0.50508 0,0.27779 -1.12301,0.50507 -2.49558,0.50507 -1.37256,0 -2.63604,0.22729 -2.80772,0.50508 -0.17169,0.27779 -1.16257,0.50508 -2.20196,0.50508 -2.88035,0 -4.60793,0.99313 -4.61263,2.65165 -0.004,1.24991 -0.18091,1.38896 -1.77171,1.38896 -0.97227,0 -1.76777,0.22728 -1.76777,0.50507 0,0.27779 -0.34092,0.50508 -0.75761,0.50508 -0.86779,0 -1.08094,2.77101 -0.25254,3.28299 0.27779,0.17169 0.50508,1.10918 0.50508,2.08332 0,0.97414 0.23248,2.20555 0.51662,2.73648 0.3675,0.68668 0.33419,1.25743 -0.11541,1.97735 -0.88198,1.41228 -1.70164,1.61298 -2.52665,0.61867 z" fill="#3088d4" transform="translate(-86.81748,-468.53719)"/>
    <path id="Chuo" d="m 221.41505,604.82297 c -2.56235,-2.63828 -3.20286,-3.76032 -2.14657,-3.76032 0.27779,0 0.50507,-0.53244 0.50507,-1.1832 0,-0.78267 -0.76272,-1.82063 -2.25307,-3.06616 -2.01685,-1.68552 -2.22167,-2.05131 -1.95352,-3.48874 0.16476,-0.8832 0.49679,-1.82173 0.73785,-2.08563 0.76165,-0.83383 0.47599,-2.61249 -0.57187,-3.56079 -1.40788,-1.27412 -1.26206,-2.56394 0.50274,-4.44681 0.83209,-0.88775 1.51395,-1.78663 1.51523,-1.99751 0.001,-0.21087 0.68419,-1.09689 1.51757,-1.96894 0.83337,-0.87205 1.51523,-1.84259 1.51523,-2.15675 0,-0.31416 0.45456,-0.89884 1.01015,-1.29928 1.03397,-0.74524 1.41484,-3.03046 0.50507,-3.03046 -0.27779,0 -0.50507,-0.68185 -0.50507,-1.51523 0,-0.83337 -0.22729,-1.51522 -0.50508,-1.51522 -0.27779,0 -0.50507,-0.24352 -0.50507,-0.54116 0,-0.65327 1.26707,-1.98423 1.88899,-1.98423 0.24525,0 0.88652,-0.40392 1.42503,-0.89761 0.53852,-0.49368 1.77462,-1.44869 2.74689,-2.12224 0.97227,-0.67354 1.88141,-1.34922 2.02031,-1.5015 0.86831,-0.95198 2.61164,-1.50201 3.40926,-1.07563 0.48614,0.25986 1.28163,0.59558 1.76777,0.74604 0.58219,0.18018 0.88388,0.78597 0.88388,1.77483 0,0.8257 0.22729,1.64174 0.50508,1.81342 0.27779,0.17169 0.50507,0.7464 0.50507,1.27714 0,0.53074 0.45069,1.76739 1.00153,2.74811 0.55084,0.98072 0.81921,1.78313 0.59638,1.78313 -0.22283,0 -0.7146,1.13642 -1.09283,2.52538 -0.37823,1.38896 -0.82426,2.52538 -0.99119,2.52538 -0.80223,0 -1.60608,4.69604 -1.31306,7.67092 0.17271,1.75352 0.43741,5.0065 0.58822,7.22883 0.15081,2.22234 0.48497,4.25653 0.74257,4.52044 1.22587,1.25581 0.21526,2.68585 -4.62946,6.55088 -0.66859,0.53338 -2.21357,1.84026 -3.43329,2.90418 -1.21973,1.06393 -2.46979,1.91743 -2.77792,1.89668 -0.30813,-0.0208 -1.75348,-1.26633 -3.21189,-2.76795 z" fill="#3088d4" transform="translate(-86.81748,-468.53719)"/>
    <path id="Minato" d="m 193.92649,624.87005 c -0.84342,-1.76779 -2.33149,-4.09746 -3.30681,-5.17703 -1.67776,-1.85708 -1.93346,-1.96285 -4.74501,-1.96285 -2.81392,0 -2.97169,-0.0655 -2.97169,-1.23288 0,-0.67809 0.22729,-1.37335 0.50508,-1.54504 0.27779,-0.17168 0.50508,-0.77918 0.50508,-1.35 0,-1.06906 1.97764,-5.08479 2.65165,-5.38435 0.20834,-0.0926 0.37881,-2.38703 0.37881,-5.09875 0,-5.55084 -0.54449,-6.60218 -3.41923,-6.60218 -0.86456,0 -1.71239,-0.22729 -1.88408,-0.50508 -0.17168,-0.27779 -0.78507,-0.50508 -1.36308,-0.50508 -1.31189,0 -2.38784,-1.36483 -2.40892,-3.05571 -0.009,-0.70837 -0.26201,-1.53389 -0.56261,-1.83449 -0.55711,-0.5571 0.0443,-2.07619 1.41273,-3.56867 0.3375,-0.36809 1.01154,-1.34284 1.49785,-2.1661 0.48632,-0.82327 1.0625,-1.49686 1.28039,-1.49686 0.2179,0 0.39618,-0.45456 0.39618,-1.01015 0,-0.55558 0.22729,-1.01015 0.50508,-1.01015 0.27779,0 0.50507,-0.45457 0.50507,-1.01015 0,-0.55559 0.22729,-1.01016 0.50508,-1.01016 0.27779,0 0.50508,-0.45456 0.50508,-1.01015 0,-0.56119 0.33672,-1.01015 0.75761,-1.01015 0.41669,0 0.75762,-0.22729 0.75762,-0.50508 0,-0.27779 0.90913,-0.50507 2.0203,-0.50507 1.11117,0 2.02031,-0.22729 2.02031,-0.50508 0,-1.40806 2.36784,-0.13274 5.62655,3.03046 2.00326,1.94454 3.92435,3.53553 4.26908,3.53553 0.34474,0 0.70255,0.1837 0.79515,0.40821 0.0926,0.22452 1.23209,1.13365 2.5322,2.02031 1.7433,1.18889 2.9272,1.61209 4.50983,1.61209 2.57948,0 5.45785,0.93192 6.5526,2.12151 0.82502,0.8965 0.75879,3.69718 -0.1,4.22794 -0.24576,0.15189 -0.44684,0.92938 -0.44684,1.72777 0,1.10275 0.53371,1.88894 2.2208,3.27138 2.60918,2.13803 2.71676,3.80369 0.24568,3.80369 -1.10485,0 -1.45633,0.2366 -1.45633,0.98034 0,0.53919 -0.22728,1.12082 -0.50507,1.2925 -0.27779,0.17169 -0.50508,2.33089 -0.50508,4.79823 0,2.46734 0.22729,4.62654 0.50508,4.79822 0.27779,0.17169 0.50507,0.52603 0.50507,0.78743 0,0.63499 -1.87718,0.61037 -2.27284,-0.0298 -0.17168,-0.27779 -0.81013,-0.50331 -1.41877,-0.50114 -1.26611,0.005 -2.3693,1.93094 -2.3693,4.13737 0,1.30116 0.15382,1.41453 1.91929,1.41453 1.05561,0 2.19203,0.27274 2.52538,0.60609 0.79294,0.79294 0.77769,4.15668 -0.0252,5.56842 -1.28119,2.25259 -1.50094,2.31067 -9.42105,2.49004 l -7.69518,0.17428 z" fill="#3088d4" transform="translate(-86.81748,-468.53719)"/>
    <path id="Shibuya" d="m 180.63014,611.16418 c -0.17168,-0.27779 -1.40207,-0.50508 -2.73419,-0.50508 -2.35109,0 -2.51172,-0.0999 -5.48348,-3.40926 -4.75296,-5.29297 -13.9089,-14.45118 -15.14853,-15.15229 -0.61396,-0.34724 -1.86941,-0.63135 -2.7899,-0.63135 -0.92048,0 -1.88952,-0.20803 -2.15342,-0.4623 -0.26391,-0.25427 -1.04359,-0.53838 -1.73264,-0.63135 -0.97023,-0.13091 -1.57861,-0.85261 -2.6971,-3.19949 -2.01914,-4.23668 -2.62817,-4.79823 -5.20389,-4.79823 -3.36039,0 -3.52656,0.23057 9.53261,-13.22671 2.63483,-2.71515 2.90419,-2.87573 2.90419,-1.73134 0,0.69376 0.22728,1.40185 0.50508,1.57353 0.27779,0.17169 0.50507,0.93236 0.50507,1.69039 0,0.76517 0.61783,2.11516 1.38896,3.03495 1.35968,1.62179 1.41026,1.63707 2.39911,0.72481 0.55559,-0.51256 1.80565,-1.48317 2.77792,-2.15692 0.97228,-0.67375 2.11113,-1.57671 2.53078,-2.00658 1.26489,-1.29566 2.92502,-2.04426 4.53344,-2.04426 0.83714,0 1.52208,0.22728 1.52208,0.50507 0,0.27779 0.35749,0.50508 0.79441,0.50508 0.43693,0 2.11397,1.40831 3.72676,3.12959 l 2.93235,3.12959 -0.85292,2.55252 c -0.99713,2.98409 -0.85781,4.1974 0.50701,4.41549 0.88055,0.1407 0.76385,0.46768 -1.10434,3.09421 -2.34248,3.29336 -2.46516,4.10837 -1.20135,7.98066 1.09211,3.34618 1.43658,3.79791 3.16928,4.1561 0.75499,0.15607 2.28185,0.46816 3.39302,0.69353 l 2.0203,0.40977 0.14679,4.16508 c 0.13894,3.94251 0.0634,4.28624 -1.41323,6.43247 -1.57376,2.28739 -2.20272,2.68694 -2.77417,1.76232 z" fill="#3088d4" transform="translate(-86.81748,-468.53719)"/>
    <path id="Shinjuku" d="m 179.69129,579.25869 c 0.17315,-0.92514 0.51205,-1.898 0.7531,-2.16191 1.021,-1.11775 0.24303,-2.6206 -2.98868,-5.77337 -4.30766,-4.20244 -5.03689,-4.60594 -8.32397,-4.60594 -2.09386,0 -2.83108,0.21894 -3.40135,1.01015 -0.40044,0.55558 -0.98512,1.01015 -1.29928,1.01015 -0.31416,0 -1.23749,0.62503 -2.05185,1.38896 -2.91663,2.73604 -3.10726,2.8314 -3.95839,1.98027 -0.42444,-0.42443 -0.7717,-1.58342 -0.7717,-2.57554 0,-0.99211 -0.22728,-1.80384 -0.50507,-1.80384 -0.2778,0 -0.50508,-1.25006 -0.50508,-2.77792 0,-1.52786 0.22728,-2.77792 0.50508,-2.77792 0.27779,0 0.50507,-1.00936 0.50507,-2.24303 0,-1.23367 0.22729,-2.38351 0.50508,-2.55519 0.27779,-0.17169 0.50507,-1.19447 0.50507,-2.27285 0,-1.07838 0.22729,-2.10116 0.50508,-2.27284 0.27779,-0.17169 0.50508,-0.73199 0.50508,-1.24512 0,-0.54093 1.06116,-1.69534 2.52538,-2.74727 3.8517,-2.76717 3.47141,-3.43461 -1.89404,-3.32424 -5.82401,0.11981 -5.68211,0.14521 -5.68211,-1.01713 0,-0.55558 -0.22728,-1.01015 -0.50507,-1.01015 -0.27779,0 -0.50508,-0.53722 -0.50508,-1.19382 0,-1.39783 -2.26659,-3.85694 -3.55498,-3.85694 -0.82613,0 -0.83966,-0.17339 -0.18366,-2.35312 0.3895,-1.29421 0.70818,-2.9397 0.70818,-3.65664 v -1.30353 l 1.26269,1.36176 c 0.69448,0.74896 1.26297,1.54214 1.26331,1.7626 3.4e-4,0.22047 0.55766,1.04856 1.23848,1.84019 1.15982,1.3486 1.40656,1.41833 3.91372,1.10596 1.47173,-0.18335 4.98367,-0.4475 7.80433,-0.58699 l 5.12845,-0.25361 0.27109,2.68319 c 0.1491,1.47575 0.42129,3.51996 0.60488,4.54269 l 0.33379,1.85951 4.36819,0.24225 c 6.58974,0.36544 7.92367,0.74233 12.35509,3.49078 3.78377,2.34677 4.1918,2.48798 5.65749,1.95798 2.09542,-0.75771 5.04959,-0.72638 5.67142,0.0602 1.07243,1.35647 1.04535,3.45708 -0.0591,4.58692 -0.59066,0.60423 -2.09672,2.34287 -3.34678,3.86364 -1.25006,1.52078 -3.12516,3.67798 -4.16688,4.79378 -1.82822,1.95824 -1.89403,2.15608 -1.89403,5.69328 0,3.5485 -0.0391,3.66455 -1.23289,3.66455 -0.67808,0 -1.37335,0.22728 -1.54503,0.50507 -0.17169,0.27779 -1.03742,0.51231 -1.92385,0.52114 -2.0481,0.0204 -2.9632,0.73097 -4.52704,3.51515 -1.58326,2.81877 -2.49459,3.22884 -2.06411,0.92879 z" fill="#3088d4" transform="translate(-86.81748,-468.53719)"/>
    <path id="Bunkyo" d="m 216.49056,555.70176 c -1.38896,-0.0861 -2.7413,-0.37022 -3.00521,-0.63135 -0.2639,-0.26112 -1.63897,-0.47477 -3.05571,-0.47477 -1.41674,0 -2.79181,-0.21108 -3.05571,-0.46907 -0.2639,-0.25799 -1.2524,-0.54209 -2.19665,-0.63134 -1.7588,-0.16625 -2.04757,-0.47532 -3.10096,-3.31901 -0.60284,-1.6274 -0.63705,-1.6415 -3.98131,-1.6415 -1.85528,0 -3.62552,0.25228 -3.93386,0.56063 -0.41078,0.41078 -1.14651,0.1704 -2.75267,-0.89933 -1.20562,-0.80297 -2.86175,-1.79393 -3.68028,-2.20212 -1.92262,-0.9588 -4.82522,-3.846 -4.82522,-4.79962 0,-0.40743 0.41965,-0.74078 0.93256,-0.74078 0.5129,0 1.64932,-0.35757 2.52538,-0.79461 1.49376,-0.74518 1.59283,-0.96508 1.59283,-3.53553 v -2.74093 h 2.49557 c 1.37257,0 2.63604,0.22729 2.80773,0.50508 0.50426,0.81592 3.14104,0.59337 3.48149,-0.29385 0.16862,-0.43941 0.30658,-1.52764 0.30658,-2.4183 0,-1.23727 0.5661,-2.2211 2.39911,-4.16946 2.34146,-2.4888 2.42248,-2.52779 3.37137,-1.62231 0.53474,0.51028 1.27341,0.92778 1.6415,0.92778 0.36808,0 0.66924,0.22728 0.66924,0.50507 0,0.8672 1.25789,0.55272 2.02031,-0.50507 0.74524,-1.03398 3.03045,-1.41485 3.03045,-0.50508 0,0.27779 0.64087,0.50508 1.42415,0.50508 0.89075,0 1.8366,0.47436 2.52538,1.26653 0.94388,1.08556 1.10124,1.87341 1.10124,5.51375 0,2.77456 0.20327,4.31497 0.58624,4.44263 0.36897,0.12299 0.5514,1.26178 0.49223,3.07255 -0.0552,1.69007 0.11967,2.87713 0.42391,2.87713 0.28486,0 0.51792,0.64693 0.51792,1.43763 0,2.32865 1.3971,4.62328 2.81491,4.62328 0.96279,0 1.2257,0.26445 1.2257,1.23289 0,0.67808 -0.22728,1.37335 -0.50507,1.54503 -0.2778,0.17169 -0.50508,0.70987 -0.50508,1.19597 0,1.69839 -1.12719,2.34797 -3.78807,2.183 z" fill="#3088d4" transform="translate(-86.81748,-468.53719)"/>
    <path id="Toshima" d="m 173.81161,542.06975 c 0,-0.77782 -0.21365,-1.63014 -0.47477,-1.89404 -0.26113,-0.2639 -0.54523,-1.61624 -0.63135,-3.0052 l -0.15657,-2.52539 h -5.55584 c -3.05571,0 -6.69601,0.1845 -8.08956,0.40999 l -2.53373,0.40998 -2.12814,-3.08402 c -2.06898,-2.99827 -2.11941,-3.16766 -1.81374,-6.09209 0.17292,-1.65444 0.4809,-3.00807 0.68439,-3.00807 0.2035,0 0.50636,-0.68186 0.67304,-1.51523 0.2134,-1.06701 0.59677,-1.51523 1.29601,-1.51523 0.54614,0 1.13345,-0.22728 1.30513,-0.50508 0.17169,-0.27779 0.75331,-0.50507 1.2925,-0.50507 0.53919,0 0.98034,-0.22729 0.98034,-0.50508 0,-0.27779 0.45457,-0.50507 1.01016,-0.50507 0.55558,0 1.01015,-0.22729 1.01015,-0.50508 0,-0.27779 0.93186,-0.50508 2.07081,-0.50508 1.68161,0 2.39357,0.32276 3.78807,1.71726 0.9445,0.94449 1.71754,1.91045 1.71788,2.14658 9.1e-4,0.64906 2.31678,3.20723 2.90343,3.20723 0.28252,0 0.63981,-0.39775 0.79398,-0.88388 0.37475,-1.18168 2.01497,-3.87195 2.48916,-4.0827 0.20834,-0.0926 0.3788,-0.60399 0.3788,-1.13642 0,-0.53244 0.22729,-0.96807 0.50508,-0.96807 0.27779,0 0.50508,-0.45457 0.50508,-1.01015 0,-0.91301 0.33671,-1.01015 3.50149,-1.01015 2.93611,0 3.54838,0.14769 3.79182,0.9147 0.15967,0.50308 1.06448,1.66505 2.0107,2.58216 1.67678,1.6252 2.81782,1.73105 2.81782,0.2614 0,-0.40029 0.22728,-0.7278 0.50507,-0.7278 0.2778,0 0.50508,-0.45457 0.50508,-1.01016 0,-0.56119 0.33672,-1.01015 0.75761,-1.01015 0.41669,0 0.75762,-0.22728 0.75762,-0.50508 0,-0.27779 0.34093,-0.50507 0.75761,-0.50507 0.4209,0 0.75762,0.44895 0.75762,1.01015 0,0.55558 0.22728,1.01015 0.50507,1.01015 0.2778,0 0.50508,0.45457 0.50508,1.01016 0,0.73426 0.33672,1.01015 1.23288,1.01015 0.67809,0 1.37335,-0.22729 1.54504,-0.50508 0.17168,-0.27779 1.10181,-0.50507 2.06695,-0.50507 1.32322,0 2.17838,0.42358 3.47709,1.72229 0.94727,0.94727 2.41704,2.13269 3.26616,2.63428 0.84913,0.50159 1.54386,1.20391 1.54386,1.5607 0,0.94585 -0.89617,0.79426 -2.13666,-0.36144 -1.743,-1.62385 -2.97249,-1.2383 -6.08664,1.90869 -2.4215,2.44704 -2.88837,3.20802 -2.88837,4.70793 v 1.7891 l -3.40927,-0.42382 c -5.25016,-0.65267 -5.68211,-0.43185 -5.68211,2.90482 v 2.78624 l -2.28357,0.97885 c -2.58137,1.10651 -3.15065,2.03506 -2.33934,3.81569 l 0.56065,1.23048 h -4.02979 -4.02978 z" fill="#3088d4" transform="translate(-86.81748,-468.53719)"/>
    <path id="Itabashi" d="m 170.40235,520.88847 c -0.34724,-0.11942 -0.63163,-0.48229 -0.63196,-0.80638 -0.001,-0.76947 -1.97806,-2.94328 -3.40726,-3.74598 -1.74226,-0.97853 -5.89144,-0.78098 -7.95634,0.37881 -0.98917,0.55558 -2.13251,1.01015 -2.54075,1.01015 -0.40824,0 -0.74225,0.22728 -0.74225,0.50508 0,0.27779 -0.34093,0.50507 -0.75761,0.50507 -0.48211,0 -0.75762,-0.48486 -0.75762,-1.33328 0,-1.70886 -1.28558,-2.67097 -3.59612,-2.69127 -1.79001,-0.0157 -1.83373,-0.0638 -2.08526,-2.29539 -0.15341,-1.36107 0.0425,-3.14149 0.48625,-4.41941 1.0552,-3.03869 0.60481,-6.04916 -1.62437,-10.85738 -2.22635,-4.80214 -3.40154,-5.67739 -7.62296,-5.67739 -1.46879,0 -2.81099,-0.22728 -2.98267,-0.50507 -0.17169,-0.2778 -1.64903,-0.50508 -3.283,-0.50508 -1.63396,0 -3.11131,-0.22728 -3.28299,-0.50508 -0.38524,-0.62332 -8.1683,-0.67633 -8.55031,-0.0582 -0.31269,0.50594 -3.31772,1.05071 -3.32132,0.6021 -0.001,-0.16023 -0.68314,-1.01768 -1.51523,-1.90543 -0.83209,-0.88776 -1.51289,-1.74205 -1.51289,-1.89841 0,-0.26289 -1.89282,-2.53506 -3.4362,-4.12488 -0.54534,-0.56174 0.21285,-1.54313 4.41942,-5.72039 2.79273,-2.77327 5.07769,-5.39115 5.07769,-5.81752 0,-0.42637 0.22729,-0.77521 0.50508,-0.77521 0.27779,0 0.50508,-0.45457 0.50508,-1.01015 0,-0.55559 0.22728,-1.01016 0.50507,-1.01016 0.27779,0 0.50508,-0.45456 0.50508,-1.01015 0,-0.87386 0.33672,-1.01015 2.49557,-1.01015 1.37257,0 2.63604,-0.22729 2.80773,-0.50508 0.17168,-0.27779 0.85354,-0.50507 1.51523,-0.50507 0.66169,0 1.34354,-0.22729 1.51523,-0.50508 0.17168,-0.27779 0.82149,-0.50508 1.44402,-0.50508 0.62253,0 1.37389,-0.24202 1.66969,-0.53783 0.35305,-0.35304 2.51355,-0.43735 6.2882,-0.24538 3.16271,0.16084 8.81871,0.41534 12.5689,0.56554 3.7502,0.1502 7.03445,0.48791 7.29836,0.75046 0.2639,0.26255 1.00257,0.47737 1.64149,0.47737 0.69589,0 1.16168,0.30377 1.16168,0.75761 0,0.41669 -0.22728,0.75762 -0.50508,0.75762 -0.27779,0 -0.50507,0.44115 -0.50507,0.98034 0,0.53919 -0.22729,1.12081 -0.50508,1.2925 -0.27779,0.17168 -0.50507,0.75331 -0.50507,1.2925 0,0.53919 -0.22729,0.98034 -0.50508,0.98034 -0.27779,0 -0.50508,0.44116 -0.50508,0.98035 0,0.53919 -0.22728,1.12081 -0.50507,1.2925 -0.2778,0.17168 -0.50508,0.78347 -0.50508,1.35952 0,1.08922 1.28413,2.43746 3.6618,3.84463 0.76393,0.45211 1.38896,1.0003 1.38896,1.2182 0,0.57702 1.90534,0.48573 2.27285,-0.1089 0.17168,-0.27779 0.86695,-0.50508 1.54503,-0.50508 0.94977,0 1.23289,0.26676 1.23289,1.16168 0,0.63892 0.20524,1.37759 0.4561,1.6415 0.25086,0.2639 0.58109,1.5026 0.73385,2.75266 0.34356,2.81157 1.15329,7.40606 1.60225,9.09137 0.185,0.69448 1.58549,2.27152 3.11218,3.50452 3.23046,2.60902 4.43432,4.12134 6.85969,8.61731 1.13726,2.10819 1.62964,3.55411 1.37596,4.04061 -0.21729,0.41669 -0.64176,1.38265 -0.94327,2.14658 -0.51905,1.31511 -0.7215,1.38896 -3.80763,1.38896 -2.98503,0 -3.34069,0.11693 -4.22465,1.38896 -0.53087,0.76393 -1.28368,2.12763 -1.67292,3.03046 -0.38923,0.90282 -0.86283,1.64149 -1.05245,1.64149 -0.18961,0 -0.41823,0.30605 -0.50805,0.68011 -0.0898,0.37406 -0.4474,0.5824 -0.79464,0.46299 z" fill="#ff9800" transform="translate(-86.81748,-468.53719)"/>
    <path id="Kita" d="m 210.97504,524.3563 c -0.14951,-0.24192 -0.9016,-0.57036 -1.67131,-0.72988 -0.76971,-0.15952 -2.98464,-1.77065 -4.92207,-3.58028 -3.51342,-3.28166 -3.53113,-3.29062 -6.79749,-3.437 -3.02506,-0.13556 -3.2973,-0.24309 -3.5686,-1.40945 -0.24498,-1.05327 -0.6309,-1.2877 -2.32679,-1.41344 -1.64871,-0.12225 -2.28948,0.10563 -3.38914,1.20529 -0.74582,0.74583 -1.3571,1.60916 -1.35838,1.91852 -0.001,0.30936 -0.68314,-0.16387 -1.51523,-1.05164 -1.46476,-1.56275 -1.93064,-2.67904 -1.11808,-2.67904 0.21714,0 0.69398,-1.01324 1.05964,-2.25164 0.61222,-2.07347 0.58098,-2.3694 -0.39481,-3.73977 -0.5828,-0.81847 -1.05964,-1.73715 -1.05964,-2.04151 0,-0.30435 -0.17367,-0.55337 -0.38593,-0.55337 -0.21226,0 -0.79783,-0.95077 -1.30127,-2.11282 -0.81593,-1.88336 -7.04306,-8.45795 -8.03552,-8.48389 -0.20834,-0.005 -0.37881,-0.57811 -0.37881,-1.27259 0,-0.69448 -0.22728,-1.26269 -0.50507,-1.26269 -0.2778,0 -0.50508,-1.12301 -0.50508,-2.49557 0,-1.37257 -0.22728,-2.63604 -0.50508,-2.80773 -0.27779,-0.17168 -0.50507,-1.43516 -0.50507,-2.80773 0,-1.37256 -0.22729,-2.49557 -0.50508,-2.49557 -0.27779,0 -0.50508,-0.68185 -0.50508,-1.51523 v -1.51523 h -3.29983 c -3.0978,0 -3.40806,-0.10823 -5.0676,-1.76776 -0.97227,-0.97228 -1.5329,-1.76777 -1.24585,-1.76777 0.28705,0 0.52191,-0.45457 0.52191,-1.01015 0,-0.55559 0.22729,-1.01016 0.50508,-1.01016 0.27779,0 0.50507,-0.45456 0.50507,-1.01015 0,-0.55558 0.22729,-1.01015 0.50508,-1.01015 0.27779,0 0.50508,-0.44116 0.50508,-0.98035 0,-0.53918 0.22728,-1.12081 0.50507,-1.29249 0.27779,-0.17169 0.50508,-0.73437 0.50508,-1.25041 0,-1.36552 1.07439,-1.50682 2.29724,-0.30213 0.58478,0.5761 1.82048,1.61567 2.74598,2.31015 0.92551,0.69448 1.97144,1.5468 2.32429,1.89404 0.39846,0.39211 2.0793,0.63134 4.4359,0.63134 2.08688,0 3.93481,0.22729 4.10649,0.50508 0.17169,0.27779 0.92451,0.50507 1.67295,0.50507 0.85746,0 1.88976,0.56045 2.79092,1.51523 1.3922,1.47504 1.55628,1.51523 6.18555,1.51523 h 4.75541 v 3.25319 c 0,1.78925 -0.22729,3.39366 -0.50508,3.56534 -0.27779,0.17169 -0.50507,1.08082 -0.50507,2.02031 0,0.93948 -0.22729,1.84862 -0.50508,2.0203 -0.85737,0.52988 -0.57247,3.57052 0.41858,4.46741 0.50801,0.45974 1.09795,0.83589 1.31099,0.83589 0.21303,0 0.99063,0.42796 1.72799,0.95102 3.0367,2.15413 5.26315,3.1572 5.80504,2.61532 0.29473,-0.29473 1.15886,-0.53588 1.92028,-0.53588 0.76143,0 1.52488,-0.22728 1.69656,-0.50508 0.17169,-0.27779 0.9806,-0.50507 1.79758,-0.50507 0.81698,0 1.48542,-0.22729 1.48542,-0.50508 0,-0.27779 0.34093,-0.50507 0.75761,-0.50507 1.18681,0 0.88822,1.72458 -0.50892,2.93937 -0.69659,0.60568 -1.43526,1.10229 -1.64149,1.10357 -0.20623,10e-4 -1.05682,0.63874 -1.8902,1.41657 -0.83337,0.77783 -1.91297,1.56514 -2.39911,1.74958 -1.57568,0.59782 -1.0241,2.24391 1.16396,3.47367 l 2.04785,1.15096 -1.54277,1.34699 c -1.00407,0.87664 -1.54277,1.82135 -1.54277,2.70551 0,1.4595 1.0181,2.8016 2.12527,2.8016 0.3752,0 1.00982,0.45457 1.41026,1.01015 0.40045,0.55558 1.02834,1.01015 1.39531,1.01015 0.36698,0 1.15516,0.45457 1.75151,1.01016 0.59635,0.55558 1.38234,1.01015 1.74665,1.01015 0.3643,0 0.66237,0.22728 0.66237,0.50507 0,0.2778 0.29807,0.50508 0.66238,0.50508 0.36431,0 1.1503,0.45457 1.74665,1.01015 0.59635,0.55559 1.29492,1.01016 1.55238,1.01016 0.25746,0 0.82034,0.53758 1.25085,1.19462 0.80538,1.22917 0.35648,2.34091 -0.94522,2.34091 -0.31992,0 -1.29518,0.68185 -2.16722,1.51523 -1.13475,1.08442 -2.08099,1.51523 -3.3281,1.51523 -0.95841,0 -1.86488,-0.19793 -2.01439,-0.43984 z" fill="#3088d4" transform="translate(-86.81748,-468.53719)"/>
    <path id="Adachi" d="m 254.39841,519.28419 c -0.197,-0.31874 -1.97896,-0.54897 -4.24908,-0.54897 -2.15038,0 -4.1257,-0.2148 -4.3896,-0.47734 -0.26391,-0.26254 -1.8174,-0.54665 -3.45222,-0.63135 l -2.9724,-0.154 -1.32075,-2.47632 c -0.94798,-1.77741 -1.14256,-2.53769 -0.68941,-2.69375 0.34724,-0.11957 0.63135,-0.65304 0.63135,-1.18547 0,-0.53244 0.22728,-0.96807 0.50507,-0.96807 1.13311,0 0.37257,-1.12473 -1.80008,-2.66206 -2.86839,-2.02961 -5.0649,-2.39979 -16.12177,-2.71706 -4.71787,-0.13538 -8.69534,-0.40098 -8.83883,-0.59024 -0.38084,-0.50229 -3.14684,-2.1283 -4.17524,-2.45444 -0.48613,-0.15417 -0.87509,-0.42426 -0.86435,-0.60021 0.0107,-0.17594 1.61166,-1.45571 3.5576,-2.84393 l 3.53806,-2.52403 -0.14833,-2.522 c -0.16147,-2.74544 -1.00685,-3.38696 -3.1189,-2.36679 -0.58852,0.28427 -1.63825,0.6318 -2.33273,0.7723 -0.69448,0.14049 -2.16453,0.48577 -3.26677,0.76728 -1.74987,0.44692 -2.29444,0.35282 -4.29315,-0.74185 -1.25899,-0.68953 -2.80448,-1.64673 -3.43442,-2.12711 l -1.14536,-0.87342 0.83995,-3.40368 c 0.70397,-2.8527 1.18222,-3.70975 2.95435,-5.29439 4.01342,-3.58881 4.15193,-3.65848 7.2739,-3.65848 2.88829,0 2.98872,-0.0471 4.28738,-2.00947 0.73139,-1.10521 1.32981,-2.24164 1.32981,-2.52538 0,-0.28375 0.22728,-0.51591 0.50507,-0.51591 0.27779,0 0.50508,-0.45457 0.50508,-1.01015 0,-0.55558 0.22728,-1.01015 0.50507,-1.01015 0.83122,0 0.55121,-1.68009 -0.50507,-3.03046 -0.54323,-0.69448 -0.99275,-1.5468 -0.99892,-1.89404 -0.006,-0.34724 -0.23852,-0.63134 -0.51631,-0.63134 -0.27779,0 -0.50508,-0.45457 -0.50508,-1.01015 0,-0.55559 -0.20077,-1.01016 -0.44617,-1.01016 -0.24539,0 -0.5723,-0.39774 -0.72647,-0.88388 -0.31909,-1.00617 -1.94549,-3.78692 -2.43711,-4.16688 -0.17971,-0.1389 -0.407,-0.75009 -0.50507,-1.35822 -0.19281,-1.19552 2.76661,-4.7027 3.96822,-4.7027 0.36596,0 1.06005,-0.20076 1.54242,-0.44614 0.48236,-0.24539 1.55888,-0.72647 2.39225,-1.06908 0.83338,-0.34262 1.9099,-0.8237 2.39226,-1.06908 0.48237,-0.24539 1.10497,-0.44615 1.38355,-0.44615 0.27858,0 2.70292,2.15049 5.38742,4.77886 5.40757,5.29453 4.69227,5.00013 13.56945,5.58481 3.65225,0.24055 5.49577,0.0829 9.34391,-0.7992 2.63669,-0.60439 5.60546,-1.26102 6.59728,-1.45919 2.06376,-0.41236 6.48132,-3.46922 6.51076,-4.50532 0.0165,-0.57986 0.15263,-0.58288 0.8327,-0.0185 0.5086,0.4221 0.60315,0.74467 0.25254,0.86154 -0.30826,0.10275 -0.56046,0.96338 -0.56046,1.9125 0,0.94912 -0.22729,1.72568 -0.50508,1.72568 -0.27779,0 -0.50508,0.68185 -0.50508,1.51523 0,0.83337 -0.22728,1.51523 -0.50507,1.51523 -0.9442,0 -0.55566,3.79584 0.50507,4.9344 0.55559,0.59635 1.01016,1.4347 1.01016,1.86301 0,0.4283 0.22728,0.77873 0.50507,0.77873 0.2778,0 0.50508,0.35716 0.50508,0.79369 0,0.43653 0.34726,1.14095 0.7717,1.56539 0.80086,0.80087 1.19003,0.65109 3.17673,-1.22266 0.36818,-0.34724 0.87013,-0.63134 1.11545,-0.63134 0.24533,0 0.96777,-0.51634 1.60542,-1.14741 0.63766,-0.63108 1.84585,-1.63216 2.68487,-2.22463 1.37471,-0.97075 1.62431,-1.00303 2.52538,-0.32665 0.54994,0.41281 1.86827,1.12979 2.92962,1.59328 1.77101,0.77341 1.90235,0.96733 1.59693,2.35794 -0.18303,0.83338 -0.44429,2.90249 -0.58058,4.59803 -0.24535,3.05221 -0.20453,3.16922 4.11512,11.79724 3.95301,7.89568 4.86068,10.37585 3.18343,8.69861 -0.32872,-0.32872 -1.22065,-0.59768 -1.98207,-0.59768 -0.76143,0 -1.52488,-0.22728 -1.69656,-0.50507 -0.17169,-0.2778 -1.04596,-0.50508 -1.94284,-0.50508 -1.28843,0 -2.15271,0.53001 -4.11808,2.52538 -2.22976,2.26381 -2.71545,2.52538 -4.68905,2.52538 -2.48908,0 -3.64471,0.85223 -3.64471,2.68781 0,1.74657 -1.19804,2.00807 -2.55965,0.55871 -1.37549,-1.46414 -2.49111,-1.5886 -2.49111,-0.2779 0,0.52157 -0.34093,1.23125 -0.75761,1.57707 -0.52345,0.43442 -0.75762,0.45353 -0.75762,0.0618 0,-0.35046 -1.06066,-0.56692 -2.77792,-0.56692 -2.4412,0 -2.77792,0.12244 -2.77792,1.01016 0,0.55558 -0.22728,1.01015 -0.50507,1.01015 -0.2778,0 -0.50508,1.25006 -0.50508,2.77792 0,1.52785 0.22728,2.77792 0.50508,2.77792 0.27779,0 0.50507,0.45457 0.50507,1.01015 0,0.55558 0.22729,1.01015 0.50508,1.01015 0.27779,0 0.50507,0.34401 0.50507,0.76447 0,0.74174 0.21113,1.27796 1.43638,3.6481 0.32116,0.62126 0.58393,1.54263 0.58393,2.04749 0,1.19492 -3.301,4.42957 -3.76094,3.68536 z" fill="#3088d4" transform="translate(-86.81748,-468.53719)"/>
    <path id="Arakawa" d="m 223.56162,530.29572 c -7.97909,-3.02747 -8.15611,-3.18552 -5.99198,-5.34965 0.91584,-0.91584 2.01367,-1.66516 2.43962,-1.66516 0.42594,0 0.77445,-0.20078 0.77445,-0.44617 0,-0.24539 0.45456,-0.56504 1.01015,-0.71033 0.55558,-0.14529 1.01015,-0.60842 1.01015,-1.02919 0,-0.8332 -4.32163,-5.39046 -5.11176,-5.39046 -0.26747,0 -0.97424,-0.45456 -1.57059,-1.01015 -0.59635,-0.55558 -1.38234,-1.01015 -1.74665,-1.01015 -0.3643,0 -0.66237,-0.22729 -0.66237,-0.50508 0,-0.27779 -0.29807,-0.50507 -0.66238,-0.50507 -0.36431,0 -1.1503,-0.45457 -1.74665,-1.01016 -0.59635,-0.55558 -1.26424,-1.01128 -1.48419,-1.01266 -0.21996,-0.001 -1.04354,-0.51755 -1.83017,-1.14705 l -1.43025,-1.14454 1.06509,-0.96389 c 0.92798,-0.83981 2.07653,-0.99038 8.92212,-1.16967 4.80233,-0.12578 8.38071,3.5e-4 9.20399,0.32442 0.74083,0.29162 2.59702,0.63235 4.12488,0.7572 3.02877,0.24748 4.45592,0.67861 5.42957,1.64021 0.75281,0.74349 0.84452,2.71598 0.12627,2.71598 -1.00194,0 -0.25489,3.53621 0.9603,4.54569 0.1672,0.1389 0.62615,0.87757 1.01989,1.6415 0.65566,1.27212 0.96112,1.38896 3.63119,1.38896 1.60341,0 3.05577,0.22728 3.22745,0.50507 0.17169,0.2778 2.13325,0.50508 4.35904,0.50508 2.83386,0 4.26315,0.21628 4.76841,0.72154 0.83728,0.83728 0.94494,2.11123 0.21646,2.56146 -0.27779,0.17168 -0.50507,0.75331 -0.50507,1.29249 0,0.53919 -0.22729,0.98035 -0.50508,0.98035 -0.27779,0 -0.50508,0.56388 -0.50508,1.25307 0,1.45169 -1.679,2.11123 -3.92367,1.54127 -0.75879,-0.19267 -2.28876,-0.46893 -3.39993,-0.61391 -1.11117,-0.14497 -2.23623,-0.4676 -2.50013,-0.71693 -0.2639,-0.24934 -1.59537,-0.45335 -2.95881,-0.45335 -2.13464,0 -3.00348,0.3508 -6.25476,2.52538 -2.07666,1.38896 -4.15446,2.51675 -4.61733,2.5062 -0.46286,-0.0105 -2.65984,-0.70909 -4.88218,-1.5523 z" fill="#3088d4" transform="translate(-86.81748,-468.53719)"/>
    <path id="Taito" d="m 233.15807,560.15148 c -0.17168,-0.2778 -0.62998,-0.50508 -1.01843,-0.50508 -0.38846,0 -2.02286,-1.22667 -3.632,-2.72594 -1.60914,-1.49927 -3.57985,-3.27402 -4.37935,-3.9439 -1.32767,-1.11242 -1.39332,-1.31581 -0.75761,-2.34719 0.63057,-1.02304 0.57728,-1.22107 -0.56667,-2.10579 -0.69448,-0.5371 -1.57856,-0.9816 -1.96462,-0.98778 -1.06312,-0.017 -2.04194,-1.59434 -2.05993,-3.31948 -0.009,-0.84727 -0.30017,-1.84668 -0.64741,-2.22091 -0.51876,-0.5591 -0.45121,-0.61547 0.37881,-0.31613 1.6741,0.60374 1.95293,0.5751 2.1299,-0.21876 0.0933,-0.41842 -0.73909,-1.78212 -1.8497,-3.03046 -1.95561,-2.19813 -2.01849,-2.38121 -1.99376,-5.80524 0.014,-1.94454 0.14018,-3.25143 0.2803,-2.90419 0.14011,0.34724 0.69346,0.63135 1.22967,0.63135 0.5362,0 1.36958,0.20076 1.85194,0.44614 0.99321,0.50525 3.41061,1.52736 4.91764,2.07924 0.55559,0.20345 1.60824,0.6516 2.33923,0.99587 1.23443,0.58138 1.65565,0.40636 5.91527,-2.45781 4.33386,-2.91408 6.68863,-3.73433 7.40287,-2.57867 0.17168,0.27779 1.19446,0.50507 2.27284,0.50507 1.07838,0 2.10116,0.22729 2.27284,0.50508 0.17169,0.27779 1.32152,0.50508 2.55519,0.50508 h 2.24304 v 2.77792 c 0,1.52785 -0.22729,2.77791 -0.50508,2.77791 -0.27779,0 -0.51013,0.62504 -0.5163,1.38896 -0.006,0.76393 -0.4557,1.95718 -0.99893,2.65165 -0.54323,0.69448 -0.99274,1.44903 -0.99892,1.67677 -0.006,0.22774 -0.69308,1.40511 -1.52646,2.61638 -0.83337,1.21127 -1.51523,2.3477 -1.51523,2.52538 0,0.17769 -0.68185,1.31412 -1.51522,2.52539 -0.83338,1.21127 -1.51523,2.44546 -1.51523,2.74265 0,0.29719 -0.19155,0.54034 -0.42567,0.54034 -0.23412,0 -0.97251,1.0796 -1.64086,2.39911 -0.66835,1.31952 -1.61322,2.83972 -2.09971,3.37824 -0.48649,0.53851 -0.88453,1.27719 -0.88453,1.6415 0,0.77202 -2.31691,0.90321 -2.77792,0.1573 z" fill="#3088d4" transform="translate(-86.81748,-468.53719)"/>
    <path id="Chiyoda" d="m 211.17945,584.8847 c -0.4124,-0.26075 -1.92561,-0.47758 -3.36271,-0.48183 -1.96452,-0.006 -2.96717,-0.2951 -4.04061,-1.16581 -0.78524,-0.63694 -2.04368,-1.54538 -2.79653,-2.01875 -0.75285,-0.47338 -2.85523,-2.25115 -4.67196,-3.9506 l -3.30313,-3.08992 v -3.25538 c 0,-2.95552 0.16641,-3.4736 1.80654,-5.6242 0.9936,-1.30285 2.64905,-3.27795 3.6788,-4.38912 1.02974,-1.11117 2.3791,-2.7416 2.99858,-3.62319 1.38311,-1.96831 3.58447,-2.57443 5.29043,-1.45664 0.80686,0.52867 1.74678,0.68766 2.80923,0.47517 0.99658,-0.19932 1.89055,-0.0754 2.37863,0.32964 0.43008,0.35694 1.78014,0.61123 3.00012,0.56508 1.21998,-0.0461 2.35942,0.14468 2.53209,0.42406 0.17266,0.27938 0.98237,0.50796 1.79935,0.50796 1.14871,0 1.48543,-0.22898 1.48543,-1.01015 0,-0.55559 0.22728,-1.01015 0.50507,-1.01015 0.27779,0 0.50508,-0.45457 0.50508,-1.01016 0,-0.55558 0.13859,-1.01015 0.30799,-1.01015 0.16939,0 1.55142,1.13642 3.07116,2.52538 1.51974,1.38896 2.97214,2.52538 3.22754,2.52538 0.25541,0 0.46438,0.24352 0.46438,0.54116 0,0.69926 -1.28497,1.98422 -1.98423,1.98422 -0.29764,0 -0.54116,0.17828 -0.54116,0.39618 0,0.2179 -0.62503,0.76639 -1.38896,1.21886 -0.76392,0.45247 -2.07081,1.41034 -2.90418,2.12859 -0.83338,0.71825 -1.79934,1.30618 -2.14658,1.30652 -0.83089,8.1e-4 -0.79327,2.26958 0.0792,4.77639 0.7982,2.29342 0.58925,3.11512 -1.34189,5.27719 -0.76393,0.85527 -1.39001,1.72748 -1.3913,1.93823 -0.001,0.21075 -0.68313,1.10952 -1.51522,1.99728 -0.83209,0.88776 -1.5129,1.8141 -1.5129,2.05853 0,0.24444 -0.5149,0.92816 -1.14422,1.51938 -0.81281,0.76359 -1.36141,0.93763 -1.89404,0.60085 z" fill="#3088d4" transform="translate(-86.81748,-468.53719)"/>
    <path id="Sumida" d="m 247.17394,567.83176 c -2.01399,-0.0816 -3.6618,-0.36572 -3.6618,-0.63134 0,-0.26563 -1.16819,-0.48295 -2.59597,-0.48295 -1.88003,0 -2.78102,-0.24377 -3.26693,-0.88389 -0.77125,-1.01598 -0.92154,-3.73573 -0.24561,-4.44467 0.25161,-0.2639 0.90739,-1.27531 1.45729,-2.24759 0.54989,-0.97227 3.41237,-5.71901 6.36105,-10.54832 2.94868,-4.82931 5.36124,-9.30476 5.36124,-9.94545 0,-0.64069 0.20327,-1.29052 0.45172,-1.44407 0.24845,-0.15355 0.58065,-1.13292 0.73823,-2.17638 0.68274,-4.52092 0.96756,-5.68528 1.39069,-5.68528 0.2474,0 0.44981,-0.44115 0.44981,-0.98034 0,-0.53919 0.22729,-1.12081 0.50508,-1.2925 0.27779,-0.17169 0.50508,-0.86695 0.50508,-1.54504 0,-0.67808 0.22728,-1.23288 0.50507,-1.23288 0.27779,0 0.50508,-0.34401 0.50508,-0.76447 0,-1.82497 4.04836,-6.53816 4.48547,-5.22207 0.12481,0.37578 0.87126,1.28582 1.6588,2.0223 0.78753,0.73649 1.43187,1.54108 1.43187,1.78799 0,0.2469 0.90914,1.4535 2.02031,2.68133 1.11117,1.22782 2.0203,2.44213 2.0203,2.69846 0,0.25632 0.40853,0.83363 0.90785,1.2829 0.49931,0.44928 1.45449,1.61236 2.12261,2.58463 0.66812,0.97227 1.58966,2.10869 2.04786,2.52538 0.72225,0.65682 2.49783,3.63104 2.49783,4.18405 0,0.10648 -1.25007,0.84761 -2.77792,1.64695 -3.38351,1.77019 -3.50803,2.63808 -0.75762,5.28068 1.33277,1.28052 2.02031,2.38429 2.02031,3.24339 0,0.71626 -0.21148,1.30229 -0.46995,1.30229 -0.25847,0 -0.54258,0.48818 -0.63135,1.08484 -0.235,1.57959 -1.67474,2.3475 -2.93071,1.56313 -0.55278,-0.34521 -1.34906,-0.62766 -1.76952,-0.62766 -0.42045,0 -0.76446,-0.22729 -0.76446,-0.50508 0,-0.27779 -0.68186,-0.50507 -1.51523,-0.50507 -0.83338,0 -1.51523,-0.22729 -1.51523,-0.50508 0,-0.27779 -0.44116,-0.50508 -0.98035,-0.50508 -0.53919,0 -1.12081,-0.22728 -1.29249,-0.50507 -0.17169,-0.27779 -0.9806,-0.50508 -1.79758,-0.50508 h -1.48542 v 5.02096 c 0,2.80248 0.22316,5.15887 0.50508,5.33311 0.27779,0.17168 0.50507,1.09423 0.50507,2.05011 0,1.70784 -0.0372,1.73797 -2.14657,1.73857 -2.24446,6.6e-4 -4.90785,1.66568 -4.94056,3.08861 -0.04,1.73985 -1.17385,2.21703 -4.90843,2.06568 z" fill="#3088d4" transform="translate(-86.81748,-468.53719)"/>
    <path id="Edogawa" d="m 290.75805,613.21892 c -0.18339,-0.29673 -0.77767,-0.53951 -1.32063,-0.53951 -0.54296,0 -1.38186,-0.20077 -1.86423,-0.44615 -0.48237,-0.24538 -1.52385,-0.75002 -2.31442,-1.12142 l -1.43738,-0.67527 0.32609,-4.05561 c 0.17935,-2.23059 0.37161,-5.30568 0.42723,-6.83353 l 0.10114,-2.77792 -1.93846,-0.15941 -1.93846,-0.15941 0.29089,-10.19466 c 0.15999,-5.60705 0.42847,-13.54213 0.59662,-17.63348 0.24164,-5.8792 0.16349,-7.57418 -0.37273,-8.08442 -0.84448,-0.80356 -3.30774,-2.8075 -5.26039,-4.27951 -3.25069,-2.45052 -3.51712,-2.72917 -2.86795,-2.99949 0.34724,-0.1446 0.63134,-0.58797 0.63134,-0.98528 0,-0.39731 0.20077,-1.11704 0.44615,-1.59941 1.85728,-3.65101 1.87081,-3.44912 -0.37579,-5.60765 -1.14986,-1.10479 -2.08891,-2.19699 -2.08677,-2.42712 0.003,-0.33003 2.95939,-2.31685 4.59405,-3.08747 0.16764,-0.079 1.61624,1.39832 3.21911,3.28299 1.60287,1.88468 3.25656,3.62489 3.67486,3.86715 0.50867,0.29458 1.73589,-0.0257 3.70554,-0.96712 2.93917,-1.4048 2.95012,-1.40592 5.54852,-0.56673 3.40677,1.10027 3.93611,1.06324 4.2258,-0.29557 0.49594,-2.32625 1.25408,-6.8539 2.05088,-12.2481 1.3969,-9.45668 1.66963,-10.35406 3.14679,-10.35406 1.28169,0 2.12837,-0.74208 4.61019,-4.04061 0.73154,-0.97228 1.95584,-2.37035 2.72066,-3.10684 1.70923,-1.6459 1.71252,-1.80516 0.0727,-3.51675 -1.62475,-1.69587 -1.22928,-2.46779 1.26429,-2.46779 1.70836,0 2.33693,0.42522 6.03111,4.07991 2.26819,2.24395 4.11409,4.23269 4.10199,4.41942 -0.0121,0.18673 -0.25181,1.36229 -0.53269,2.61235 -0.28089,1.25006 -0.74026,3.29562 -1.02082,4.54569 -1.15154,5.13065 -1.12025,5.95496 0.33927,8.93812 0.85732,1.7523 3.65951,5.3403 7.2514,9.2849 5.69247,6.25144 7.11682,8.56199 7.11682,11.54476 0,0.54689 0.25032,1.54374 0.55628,2.21523 0.44262,0.97146 0.39041,1.41486 -0.2556,2.17034 -0.44653,0.52219 -2.34467,3.20449 -4.21808,5.96066 -3.46396,5.09618 -5.35981,6.755 -7.79581,6.82116 -0.74754,0.0203 -1.49963,0.2642 -1.67131,0.542 -0.17169,0.27779 -0.85354,0.50507 -1.51523,0.50507 -0.66169,0 -1.34354,0.22729 -1.51523,0.50508 -0.17168,0.27779 -0.98059,0.50508 -1.79757,0.50508 -0.81698,0 -1.48542,0.21288 -1.48542,0.47307 0,0.26019 -0.71576,0.5443 -1.59057,0.63135 -0.8748,0.087 -1.74862,0.49919 -1.9418,0.91588 -0.19318,0.41669 -0.61385,1.26592 -0.93482,1.88718 -0.71556,1.38503 -0.77495,5.68896 -0.0785,5.68896 0.30105,0 0.50508,1.92619 0.50508,4.76842 0,2.63412 0.22606,4.90813 0.50507,5.08057 0.27779,0.17169 0.50508,1.54881 0.50508,3.06027 0,1.51146 -0.22729,2.74811 -0.50508,2.74811 -0.27779,0 -0.50507,0.79549 -0.50507,1.76777 0,0.97227 -0.22729,1.76776 -0.50508,1.76776 -0.27779,0 -0.50508,0.5713 -0.50508,1.26955 0,2.12921 -1.34552,4.06034 -3.6618,5.25552 -0.76393,0.39418 -1.38896,0.90557 -1.38896,1.13642 0,0.23085 -0.24902,0.41973 -0.55338,0.41973 -0.30435,0 -1.16411,0.43489 -1.91057,0.96642 -0.96,0.68358 -2.46099,1.02298 -5.12873,1.15972 -2.07435,0.10632 -4.14629,0.36877 -4.60433,0.58324 -0.47349,0.22171 -0.97665,0.15718 -1.16623,-0.14956 z" fill="#3088d4" transform="translate(-86.81748,-468.53719)"/>
    <path id="Katsushika" d="m 280.84438,541.06208 c -1.78178,-1.88762 -3.58365,-3.87636 -4.00415,-4.41942 -0.42051,-0.54306 -1.55693,-2.01016 -2.52538,-3.26023 -0.96846,-1.25006 -1.88542,-2.38648 -2.0377,-2.52538 -0.15228,-0.13889 -0.82335,-1.04803 -1.49127,-2.0203 -0.66791,-0.97227 -1.57688,-2.1087 -2.01993,-2.52538 -0.44304,-0.41669 -1.35201,-1.55311 -2.01993,-2.52539 -0.66792,-0.97227 -1.34994,-1.8814 -1.5156,-2.0203 -0.16567,-0.1389 -0.84769,-1.04803 -1.5156,-2.02031 -0.66792,-0.97227 -1.56611,-2.11112 -1.99598,-2.53078 -1.06438,-1.0391 -2.04426,-2.84897 -2.04426,-3.77582 0,-0.42045 -0.22729,-0.76446 -0.50508,-0.76446 -0.27779,0 -0.50507,-0.45457 -0.50507,-1.01016 0,-0.55558 -0.22729,-1.01015 -0.50508,-1.01015 -0.27779,0 -0.50508,-0.34401 -0.50508,-0.76447 0,-0.42045 -0.22728,-1.21595 -0.50507,-1.76776 l -1.01016,-2.0066 c -0.73287,-1.4558 -0.60571,-2.62472 0.43235,-3.9744 1.24031,-1.61266 2.58873,-1.23447 3.80006,1.06577 1.31961,2.50587 2.33359,2.47344 2.33359,-0.0747 0,-2.44292 0.99829,-2.94223 2.55965,-1.28024 1.36045,1.44813 2.49111,1.59204 2.49111,0.31707 0,-0.50003 0.20804,-1.12506 0.46231,-1.38896 0.25427,-0.2639 0.53837,-1.04803 0.63134,-1.74251 0.15529,-1.16001 0.35427,-1.25141 2.44676,-1.12389 2.16225,0.13177 2.41742,-0.003 5.03351,-2.65165 2.63502,-2.66817 4.13393,-3.38026 4.8106,-2.28538 0.17169,0.27779 0.93514,0.50508 1.69656,0.50508 0.76142,0 1.60033,0.20389 1.86423,0.45309 0.2639,0.2492 1.44578,0.61011 2.62639,0.80201 1.87343,0.30452 2.1465,0.23079 2.14599,-0.57936 -3.2e-4,-0.51055 -2.15952,-5.2419 -4.79822,-10.51409 -3.97558,-7.94331 -4.79489,-9.97708 -4.78158,-11.86929 0.009,-1.25592 0.31683,-2.67963 0.68443,-3.16382 0.63551,-0.83705 0.71953,-0.83705 1.70917,0 2.76492,2.33862 3.19232,2.6481 3.65703,2.6481 0.27461,0 0.4993,0.22729 0.4993,0.50508 0,1.11468 0.90022,0.39697 1.78584,-1.42377 1.11682,-2.29604 2.6485,-3.12192 5.78998,-3.12192 1.27802,0 2.56752,-0.24384 2.86554,-0.54187 0.29803,-0.29802 1.28492,-0.46849 2.1931,-0.3788 1.8727,0.18493 2.9333,1.92114 1.86486,3.05279 -0.33535,0.35519 -0.93223,1.27083 -1.32641,2.03476 -0.39419,0.76393 -0.90558,1.38896 -1.13643,1.38896 -0.23085,0 -0.41972,0.56821 -0.41972,1.26269 0,0.69448 0.22728,1.26269 0.50507,1.26269 0.27779,0 0.50508,0.29807 0.50508,0.66238 0,0.36431 0.45457,1.1503 1.01015,1.74665 0.55558,0.59635 1.01015,1.28583 1.01015,1.53218 0,0.72248 1.77408,2.11971 2.69142,2.11971 0.46427,0 0.84412,-0.20789 0.84412,-0.46198 0,-0.25409 1.42052,-0.58244 3.15672,-0.72966 1.7362,-0.14722 4.14187,-0.4196 5.34592,-0.60529 2.08371,-0.32134 2.18105,-0.28074 2.0203,0.84266 -0.11973,0.83675 -1.39676,1.99263 -4.38773,3.97145 -3.05329,2.02006 -4.55333,3.38798 -5.42957,4.95133 -0.6659,1.18807 -1.21072,2.45272 -1.21072,2.81032 0,0.35761 1.59099,3.80301 3.53553,7.65645 1.94455,3.85344 3.53554,7.1913 3.53554,7.41747 0,0.22617 -0.96596,0.41844 -2.14658,0.42728 -1.99575,0.0149 -3.91434,0.86337 -3.91434,1.73101 0,0.20516 0.71547,1.04137 1.58994,1.85824 1.48052,1.38301 1.54241,1.57401 0.89942,2.77546 -1.36911,2.5582 -5.86815,6.75121 -7.24395,6.75121 -0.9696,0 -1.30632,0.26037 -1.30632,1.01015 0,0.55558 -0.22729,1.01015 -0.50508,1.01015 -0.2806,0 -0.50507,1.34687 -0.50507,3.03046 0,1.68359 -0.22448,3.03046 -0.50508,3.03046 -0.2806,0 -0.50508,1.34687 -0.50508,3.03045 0,1.68359 -0.22448,3.03046 -0.50507,3.03046 -0.2806,0 -0.50508,1.34687 -0.50508,3.03046 0,1.68359 -0.22448,3.03046 -0.50508,3.03046 -0.27779,0 -0.50507,0.56821 -0.50507,1.26269 0,0.91318 -0.27136,1.26269 -0.98035,1.26269 -0.53919,0 -1.12081,-0.22729 -1.2925,-0.50508 -0.51906,-0.83987 -3.70596,-0.56832 -5.92764,0.50508 -1.14993,0.55558 -2.23808,1.01015 -2.41812,1.01015 -0.18004,0 -1.78516,-1.54441 -3.56693,-3.43203 z" fill="#3088d4" transform="translate(-86.81748,-468.53719)"/>

    <path id="Mastodon" d="m 177.50984,80.077 v 60.94125 h -24.14375 v -59.15 c 0,-12.46875 -5.24625,-18.7975 -15.74,-18.7975 -11.6025,0 -17.4175,7.5075 -17.4175,22.3525 V 117.7995 H 96.20734 V 85.42325 c 0,-14.845 -5.81625,-22.3525 -17.41875,-22.3525 -10.49375,0 -15.74,6.32875 -15.74,18.7975 v 59.15 H 38.90484 V 80.077 c 0,-12.455 3.17125,-22.3525 9.54125,-29.675 6.56875,-7.3225 15.17125,-11.07625 25.85,-11.07625 12.355,0 21.71125,4.74875 27.8975,14.2475 l 6.01375,10.08125 6.015,-10.08125 c 6.185,-9.49875 15.54125,-14.2475 27.8975,-14.2475 10.6775,0 19.28,3.75375 25.85,11.07625 6.36875,7.3225 9.54,17.22 9.54,29.675" fill="#ffffff"/>
  </g>
</svg>
