<?xml version="1.0" encoding="utf-8"?>
<!-- Generator: Adobe Illustrator 21.0.0, SVG Export Plug-In . SVG Version: 6.00 Build 0)  -->
<svg version="1.1" id="图层_1" xmlns="http://www.w3.org/2000/svg" xmlns:xlink="http://www.w3.org/1999/xlink" x="0px" y="0px"
	 viewBox="0 0 713.4 175.9" style="enable-background:new 0 0 713.4 175.9;" xml:space="preserve">
<style type="text/css">
	.st0{fill:#1D88A8;}
	.st1{fill:#FFFFFF;}
	.st2{enable-background:new    ;}
</style>
<path class="st0" d="M129.7,105.8c-1.9,11.6-17.4,24.2-35.3,26.7c-9.3,1.3-18.4,2.4-28.1,1.9c-15.9-0.8-28.5-4.4-28.5-4.4
	c0,1.8,0.2,3.5,0.3,5.1c2.1,18.1,15.6,19.2,28.4,19.7c12.9,0.5,24.4-3.6,24.4-3.6l0.6,13.5c0,0-9.1,5.6-25.1,6.6
	c-8.8,0.6-19.9-0.3-32.8-4.2c-28-8.6-32.7-42.9-33.5-77.6C-0.1,79.2,0,69.5,0,61.3c0-35.5,20.2-45.9,20.2-45.9
	C30.3,10.1,47.8,7.7,66,7.6h0.4c18.2,0.2,35.6,2.4,45.8,7.9c0,0,20.2,10.5,20.2,45.9C132.5,61.4,132.7,87.5,129.7,105.8"/>
<path id="XMLID_90_" class="st1" d="M86.6,32.8h18.9V113H86.6V74.2c-32,1.9-38.9,24.1-40.6,39H27V32.8h19v39.8
	c9.6-9.7,22.9-15.4,40.6-15.8V32.8L86.6,32.8z"/>
<g>
	<path class="st0" d="M152.5,43.4h7l-7-22.4h14l9.3,30.5H169l6.8,22.7H162L152.5,43.4z M152.5,119.7l9.5-39.1h13.8l-9.3,39.1H152.5z
		 M236.5,84.1v11.4h3v10.6h-3v2.6c0,3.4-1,6.2-2.9,8.4c-1.5,1.5-3.2,2.3-5,2.3h-14.8l3.8-9.5h4c0.7,0,1.2-0.3,1.6-0.8
		c0.5-0.6,0.7-1.4,0.7-2.3v-0.7h-33.5c-2.4,0-4.4-1.2-6.1-3.5c-1.7-2.3-2.5-5-2.5-8.2V84.1h-4V72h4V46.8h54.6V72h4.6v12.1H236.5z
		 M200.5,21l-2.3,6.5h42.6v13.6H179l6.5-20.1C185.5,21,200.5,21,200.5,21z M194.1,72h10.1l-1.8-10h10.4l2.2,10h8.9V58.6h-29.8
		L194.1,72L194.1,72z M223.9,84.1h-29.8v7.1c0,1.3,0.3,2.3,0.9,3.1c0.6,0.8,1.4,1.2,2.3,1.2h6.5l-1.5-8.4h10.4l1.8,8.4h9.3V84.1
		H223.9z"/>
	<path class="st0" d="M258.2,27.6v82.8h4V21.8h9.4v88.7h0.6c0.6,0,1.3-0.3,2-0.9c0.8-0.6,1.1-1.2,1.1-2v-80h9.4v81.9
		c0,2.8-0.7,5.2-2.1,7.1s-3.2,2.9-5.2,2.9h-28.6V27.6H258.2z M286.2,119.6L300.4,87h-12.1V73.4h4.9L288.3,46h11.6l4.9,27.4h1.7V42.7
		h-18.4V29.1h18.4v-7.9H319v7.9h16.2v13.6H319v30.7h1.1l4.8-27.4h11.6l-4.8,27.4h4.5V87h-21.9l-1.9,4.5h10.3l13.1,28.1h-14.4
		l-11-23.6l-10.3,23.6H286.2z"/>
	<path class="st0" d="M428.5,119.3c-8.1-1.3-15.9-3.5-23.2-6.7c-7.4-3.2-14.3-6.9-20.7-11.3c-6.4,4.3-13.3,8.1-20.6,11.3
		c-7.4,3.2-15.1,5.4-23.2,6.7V105c6.2-1.4,11.9-3.3,17.1-5.4c5.2-2.2,10.1-4.6,14.7-7.2c-3.2-2.6-6.2-5.3-8.9-8
		c-2.8-2.7-5.3-5.4-7.5-8l-0.5,1.4h-14.5l9.8-28.9h14.7l-6.4,18.6h7.2c2.3,2.6,5,5.4,8,8.3s6.4,5.8,10.1,8.7
		c3.8-2.9,7.2-5.8,10.2-8.7c3-2.9,5.7-5.7,8-8.3h7.2l-6.4-18.6h14.7l9.8,28.9h-14.5l-0.5-1.4c-2.3,2.6-4.8,5.3-7.5,8
		c-2.8,2.7-5.7,5.4-8.9,8c4.6,2.6,9.5,5,14.7,7.2s10.9,4,17.1,5.4L428.5,119.3L428.5,119.3z M343.2,30.2h34.7l-2.9-8.8h13.9l2.9,8.8
		H426v13.4h-82.8V30.2z"/>
	<path class="st0" d="M433.3,83.7l7.3-29.1h-7.4V42.3h20.1h1.6l-7.2,29.6h5.6l-4.1,22.7l6.8,11.8h63.9v12.2h-71l-3.1-5.2l-1,5.2
		h-11.6l7.1-34.5h-7.1L433.3,83.7z M453.1,38.4h-13l-6.8-16.3h13L453.1,38.4z M504.7,91.9c0.7,0,1.3-0.3,1.8-1
		c0.5-0.6,0.8-1.4,0.8-2.4v-2.3h-0.1H495V102h-12.9V86.2h-12.5V102h-12.2V44.2h3.9h7.4l-3.1-6.7h13.5l3.1,6.7h8.4l6.1-10.3h-39.3
		V23.6h31.7h27.5l-11,20.6h1.9h3.1c1.3,0,2.5,0.3,3.6,1s2.1,1.6,2.9,2.8c0.8,1.2,1.5,2.6,1.9,4.1c0.5,1.6,0.7,3.2,0.7,5v0.7v26.9
		v5.8c0,1.7-0.2,3.4-0.7,4.9s-1.2,2.9-2,4s-1.8,2-2.9,2.6c-1.1,0.6-2.3,1-3.6,1H505l-4-11.1H504.7z M482.1,54.5h-12.5v6.1h12.5V54.5
		z M482.1,76.5v-6.1h-12.5v6.1H482.1z M507.4,57.8c-0.1-1-0.4-1.8-0.9-2.4c-0.5-0.6-1.1-0.9-1.8-0.9H495v6.1h3.3h9L507.4,57.8
		L507.4,57.8z M507.3,76.5v-6.1H507h-12v6.1h3.5H507.3z"/>
	<path class="st0" d="M556.6,105.2c0,2.1-0.3,4-0.8,5.8c-0.6,1.8-1.3,3.4-2.3,4.7c-1,1.3-2.2,2.4-3.5,3.1c-1.3,0.8-2.8,1.2-4.3,1.2
		h-21.3V22.9h32.3v82.3H556.6z M543.9,36.2h-6.8v70.6h3.6c0.9,0,1.7-0.4,2.3-1.2s0.9-1.8,0.9-3v-2.2V36.2z"/>
	<g class="st2">
		<path class="st0" d="M570.6,52.2V38.6h-12.1V26h12.1v-4.2h7.6V26h12.1v12.6h-12.1v13.6h2.1l2.3-10.1h7l-2.3,10.1h3.6v12.2h-17.6
			l-1.9,5.8h17.4v33.3c0,2.1-0.2,4-0.5,5.7c-0.3,1.7-0.8,3.3-1.4,4.6c-0.6,1.3-1.3,2.4-2.1,3.2c-0.8,0.8-1.7,1.1-2.6,1.1h-11.5h-6
			h-2.4V83.7h-4.3l6.4-19.3h-6.4V52.2H570.6z M580.4,81.2h-9.8v7.1h9.8V81.2z M580.4,99.3h-9.8v7.8h7.9c0.5,0,1-0.4,1.3-1.2
			s0.6-1.8,0.6-3V99.3z M614.9,22.1l-4.7,42.3h4.7l-6.9,48.5h-7.7l5.4-37.5h-5.1l4.7-40.2h-5.8v83.1h-7.4V22.1h4.1h3.3H614.9z"/>
	</g>
	<path class="st0" d="M653.8,105.2c0,2.1-0.3,4-0.8,5.8c-0.6,1.8-1.3,3.4-2.3,4.7c-1,1.3-2.2,2.4-3.5,3.1c-1.3,0.8-2.8,1.2-4.3,1.2
		h-21.3V22.9h32.3v82.3H653.8z M641.1,36.2h-6.8v70.6h3.6c0.9,0,1.7-0.4,2.3-1.2s0.9-1.8,0.9-3v-2.2V36.2z"/>
	<g class="st2">
		<path class="st0" d="M667.8,52.2V38.6h-12.1V26h12.1v-4.2h7.6V26h12.1v12.6h-12.1v13.6h2.1l2.3-10.1h7l-2.3,10.1h3.6v12.2h-17.6
			l-1.9,5.8H686v33.3c0,2.1-0.2,4-0.5,5.7c-0.3,1.7-0.8,3.3-1.4,4.6c-0.6,1.3-1.3,2.4-2.1,3.2c-0.8,0.8-1.7,1.1-2.6,1.1h-11.5h-6
			h-2.4V83.7h-4.3l6.4-19.3h-6.4V52.2H667.8z M677.6,81.2h-9.8v7.1h9.8V81.2z M677.6,99.3h-9.8v7.8h7.9c0.5,0,1-0.4,1.3-1.2
			s0.6-1.8,0.6-3V99.3z M712.1,22.1l-4.7,42.3h4.7l-6.9,48.5h-7.7l5.4-37.5h-5.1l4.7-40.2h-5.8v83.1h-7.4V22.1h4.1h3.3H712.1z"/>
	</g>
</g>
<g>
	<path class="st0" d="M156.7,163.3v-5h12c1.9,0,3.2-0.2,3.8-0.6c0.9-0.6,1.4-1.5,1.4-2.7c0-1.4-0.5-2.4-1.6-3
		c-0.6-0.4-1.6-0.5-2.9-0.5h-4.9c-3,0-5.1-0.6-6.4-1.7c-0.8-0.7-1.5-1.6-1.9-2.7c-0.5-1.1-0.7-2.3-0.7-3.5c0-2,0.5-3.8,1.6-5.4
		c1.1-1.6,2.7-2.5,5.1-2.8c0.8-0.1,2-0.1,3.5-0.1h13.1v5H167c-1.8,0-2.9,0.1-3.5,0.3c-1.2,0.3-1.8,1.3-1.8,2.9
		c0,1.4,0.5,2.3,1.5,2.7c0.7,0.3,1.8,0.5,3.3,0.5h4.2c2.2,0,3.8,0.2,4.8,0.6c1.9,0.7,3.2,1.9,3.9,3.5c0.6,1.4,0.8,2.8,0.8,4.4
		c0,1.7-0.4,3.3-1.1,4.6c-1,1.9-2.6,3.1-4.6,3.5c-1,0.2-2.5,0.3-4.5,0.3h-13.3V163.3z"/>
	<path class="st0" d="M185.6,142.7v-7.6h5.3v7.6h4.9v4.4h-4.9v7.5c0,1.7,0.1,2.8,0.4,3.3c0.4,0.7,1.2,1,2.4,1h2.1v4.4H192
		c-2.3,0-3.9-0.6-4.9-1.8s-1.5-3.2-1.5-6V147h-3.4v-4.4h3.4V142.7z"/>
	<path class="st0" d="M199.3,142.7h7.8c1.6,0,2.8,0.1,3.7,0.4c0.9,0.2,1.6,0.6,2.2,1.2c0.6,0.6,1,1.3,1.2,2.1s0.4,2.1,0.4,3.6v2
		h-5.1v-1.1c0-1.5-0.2-2.5-0.7-3s-1.4-0.8-2.7-0.8h-1.5v16.2h-5.3L199.3,142.7L199.3,142.7z"/>
	<path class="st0" d="M231.1,150.8c0-1.4-0.3-2.4-0.8-2.9s-1.6-0.8-3.2-0.8h-8.9v-4.4h8.9c1.6,0,2.7,0,3.3,0.1s1.2,0.2,1.9,0.4
		c2.9,1.2,4.3,4,4.1,8.5v11.6h-11.1c-2,0-3.4-0.1-4.1-0.2s-1.4-0.4-2-0.8c-1.6-1.1-2.3-2.8-2.3-5.1c0-1.4,0.3-2.6,0.9-3.7
		c0.6-1.1,1.4-1.8,2.5-2.2c0.9-0.3,2.4-0.5,4.5-0.5L231.1,150.8L231.1,150.8z M231.1,155.2H225h-0.9c-0.6,0-1.1,0.2-1.4,0.5
		c-0.4,0.3-0.5,0.8-0.5,1.4c0,0.6,0.2,1.1,0.7,1.4c0.4,0.3,1.2,0.4,2.2,0.4h6.1v-3.7H231.1z"/>
	<path class="st0" d="M241.3,140.6v-5.5h5.3v5.5H241.3z M241.3,142.7h5.3v20.6h-5.3V142.7z"/>
	<path class="st0" d="M253.2,142.7v-7.6h5.3v7.6h4.9v4.4h-4.9v7.5c0,1.7,0.1,2.8,0.4,3.3c0.4,0.7,1.2,1,2.4,1h2.1v4.4h-3.8
		c-2.3,0-3.9-0.6-4.9-1.8s-1.5-3.2-1.5-6V147h-3.4v-4.4h3.4V142.7z"/>
	<path class="st0" d="M292.7,140.1h-8.4v-5H307v5h-8.7v23.2h-5.6V140.1z"/>
	<path class="st0" d="M309.8,142.7h7.8c1.6,0,2.8,0.1,3.7,0.4c0.9,0.2,1.6,0.6,2.2,1.2c0.6,0.6,1,1.3,1.2,2.1s0.4,2.1,0.4,3.6v2H320
		v-1.1c0-1.5-0.2-2.5-0.7-3s-1.4-0.8-2.7-0.8h-1.5v16.2h-5.3V142.7z"/>
	<path class="st0" d="M341.6,150.8c0-1.4-0.3-2.4-0.8-2.9s-1.6-0.8-3.2-0.8h-8.9v-4.4h8.9c1.6,0,2.7,0,3.3,0.1
		c0.6,0.1,1.2,0.2,1.9,0.4c2.9,1.2,4.3,4,4.1,8.5v11.6h-11.1c-2,0-3.4-0.1-4.1-0.2c-0.8-0.1-1.4-0.4-2-0.8c-1.6-1.1-2.3-2.8-2.3-5.1
		c0-1.4,0.3-2.6,0.9-3.7c0.6-1.1,1.4-1.8,2.5-2.2c0.9-0.3,2.4-0.5,4.5-0.5L341.6,150.8L341.6,150.8z M341.6,155.2h-6.1h-0.9
		c-0.6,0-1.1,0.2-1.4,0.5c-0.4,0.3-0.5,0.8-0.5,1.4c0,0.6,0.2,1.1,0.7,1.4c0.4,0.3,1.2,0.4,2.2,0.4h6.1v-3.7H341.6z"/>
	<path class="st0" d="M351.8,142.7H362c1.5,0,2.7,0.1,3.5,0.4c0.8,0.2,1.5,0.7,2.2,1.3c1.3,1.3,2,3.4,2,6.3v12.7h-5.3V150
		c0-1-0.2-1.7-0.6-2.2c-0.4-0.4-1.1-0.7-2.1-0.7h-4.6v16.2h-5.3L351.8,142.7L351.8,142.7z"/>
	<path class="st0" d="M391.3,142.7v4.4H382c-1.1,0-1.8,0.1-2.1,0.2c-0.6,0.2-0.9,0.8-0.9,1.6c0,0.7,0.3,1.3,0.9,1.7
		c0.3,0.2,1.2,0.3,2.6,0.3h3.1c2,0,3.6,0.5,4.7,1.4c1.3,1,1.9,2.5,1.9,4.5c0,1.5-0.4,2.9-1.2,4.1c-0.6,1-1.3,1.6-2.1,1.9
		c-0.8,0.3-2.2,0.5-4.2,0.5h-10.9v-4.4h9.4c1.2,0,1.9,0,2.4,0c0.9-0.1,1.4-0.7,1.4-1.7c0-0.8-0.3-1.4-0.9-1.7
		c-0.3-0.2-1.1-0.3-2.3-0.3h-3.2c-1.3,0-2.2-0.1-2.9-0.3c-0.7-0.2-1.3-0.5-1.9-0.9c-0.7-0.5-1.3-1.3-1.7-2.2c-0.4-0.9-0.6-2-0.6-3
		c0-2.1,0.7-3.7,2.1-4.9c0.8-0.7,2.3-1.1,4.4-1.1h11.3V142.7z"/>
	<path class="st0" d="M396.3,142.7h9.2c1.8,0,3.1,0.1,4.1,0.4c0.9,0.2,1.8,0.7,2.6,1.4c2.3,1.9,3.4,4.9,3.4,8.8c0,3-0.8,5.4-2.5,7.3
		c-0.8,0.9-1.8,1.6-2.9,2s-2.4,0.6-4,0.6h-4.7v7.7h-5.3L396.3,142.7L396.3,142.7z M401.5,147.1v11.8h3.2c1.7,0,3-0.4,3.8-1.2
		c1.1-1,1.7-2.6,1.7-4.8c0-1.9-0.4-3.3-1.3-4.3s-2.1-1.5-3.8-1.5H401.5z"/>
	<path class="st0" d="M428.4,142.4c3.6,0,6.2,1.1,7.9,3.3c1.6,2,2.3,4.5,2.3,7.6c0,3.2-1,5.8-2.9,7.7c-1.8,1.7-4.2,2.6-7.3,2.6
		c-3.2,0-5.7-1-7.5-3c-1.7-1.8-2.5-4.4-2.5-7.8c0-2.9,0.8-5.3,2.4-7.2C422.4,143.5,425,142.4,428.4,142.4z M428.4,146.7
		c-3.2,0-4.8,2.1-4.8,6.3c0,1.7,0.3,3,0.8,3.9c0.9,1.5,2.2,2.3,4,2.3c3.1,0,4.7-2.1,4.7-6.3C433.2,148.9,431.6,146.8,428.4,146.7z"
		/>
	<path class="st0" d="M442.5,142.7h7.8c1.6,0,2.8,0.1,3.7,0.4c0.9,0.2,1.6,0.6,2.2,1.2c0.6,0.6,1,1.3,1.2,2.1s0.4,2.1,0.4,3.6v2
		h-5.1v-1.1c0-1.5-0.2-2.5-0.7-3s-1.4-0.8-2.7-0.8h-1.5v16.2h-5.3V142.7z"/>
	<path class="st0" d="M462.4,142.7v-7.6h5.3v7.6h4.9v4.4h-4.9v7.5c0,1.7,0.1,2.8,0.4,3.3c0.4,0.7,1.2,1,2.4,1h2.1v4.4h-3.8
		c-2.3,0-3.9-0.6-4.9-1.8s-1.5-3.2-1.5-6V147H459v-4.4h3.4V142.7z"/>
	<path class="st0" d="M489.4,150.8c0-1.4-0.3-2.4-0.8-2.9s-1.6-0.8-3.2-0.8h-8.9v-4.4h8.9c1.6,0,2.7,0,3.3,0.1
		c0.6,0.1,1.2,0.2,1.9,0.4c2.9,1.2,4.3,4,4.1,8.5v11.6h-11.1c-2,0-3.4-0.1-4.1-0.2c-0.8-0.1-1.4-0.4-2-0.8c-1.6-1.1-2.3-2.8-2.3-5.1
		c0-1.4,0.3-2.6,0.9-3.7c0.6-1.1,1.4-1.8,2.5-2.2c0.9-0.3,2.4-0.5,4.5-0.5L489.4,150.8L489.4,150.8z M489.4,155.2h-6.1h-0.9
		c-0.6,0-1.1,0.2-1.4,0.5c-0.4,0.3-0.5,0.8-0.5,1.4c0,0.6,0.2,1.1,0.7,1.4c0.4,0.3,1.2,0.4,2.2,0.4h6.1v-3.7H489.4z"/>
	<path class="st0" d="M501.1,142.7v-7.6h5.3v7.6h4.9v4.4h-4.9v7.5c0,1.7,0.1,2.8,0.4,3.3c0.4,0.7,1.2,1,2.4,1h2.1v4.4h-3.8
		c-2.3,0-3.9-0.6-4.9-1.8s-1.5-3.2-1.5-6V147h-3.4v-4.4h3.4V142.7z"/>
	<path class="st0" d="M514.9,140.6v-5.5h5.3v5.5H514.9z M514.9,142.7h5.3v20.6h-5.3V142.7z"/>
	<path class="st0" d="M534.2,142.4c3.6,0,6.2,1.1,7.9,3.3c1.6,2,2.3,4.5,2.3,7.6c0,3.2-1,5.8-2.9,7.7c-1.8,1.7-4.2,2.6-7.3,2.6
		c-3.2,0-5.7-1-7.5-3c-1.7-1.8-2.5-4.4-2.5-7.8c0-2.9,0.8-5.3,2.4-7.2C528.3,143.5,530.9,142.4,534.2,142.4z M534.3,146.7
		c-3.2,0-4.8,2.1-4.8,6.3c0,1.7,0.3,3,0.8,3.9c0.9,1.5,2.2,2.3,4,2.3c3.1,0,4.7-2.1,4.7-6.3C539,148.9,537.4,146.8,534.3,146.7z"/>
	<path class="st0" d="M548.3,142.7h10.2c1.5,0,2.7,0.1,3.5,0.4c0.8,0.2,1.5,0.7,2.2,1.3c1.3,1.3,2,3.4,2,6.3v12.7h-5.3V150
		c0-1-0.2-1.7-0.6-2.2c-0.4-0.4-1.1-0.7-2.1-0.7h-4.6v16.2h-5.3L548.3,142.7L548.3,142.7z"/>
	<path class="st0" d="M596.9,140.1h-8.4v-5h22.7v5h-8.7v23.2h-5.6V140.1z"/>
	<path class="st0" d="M622.9,142.4c3.6,0,6.2,1.1,7.9,3.3c1.6,2,2.3,4.5,2.3,7.6c0,3.2-1,5.8-2.9,7.7c-1.8,1.7-4.2,2.6-7.3,2.6
		c-3.2,0-5.7-1-7.5-3c-1.7-1.8-2.5-4.4-2.5-7.8c0-2.9,0.8-5.3,2.4-7.2C616.9,143.5,619.5,142.4,622.9,142.4z M622.9,146.7
		c-3.2,0-4.8,2.1-4.8,6.3c0,1.7,0.3,3,0.8,3.9c0.9,1.5,2.2,2.3,4,2.3c3.1,0,4.7-2.1,4.7-6.3C627.6,148.9,626.1,146.8,622.9,146.7z"
		/>
	<path class="st0" d="M645.8,142.4c3.6,0,6.2,1.1,7.9,3.3c1.6,2,2.3,4.5,2.3,7.6c0,3.2-1,5.8-2.9,7.7c-1.8,1.7-4.2,2.6-7.3,2.6
		c-3.2,0-5.7-1-7.5-3c-1.7-1.8-2.5-4.4-2.5-7.8c0-2.9,0.8-5.3,2.4-7.2C639.9,143.5,642.5,142.4,645.8,142.4z M645.9,146.7
		c-3.2,0-4.8,2.1-4.8,6.3c0,1.7,0.3,3,0.8,3.9c0.9,1.5,2.2,2.3,4,2.3c3.1,0,4.7-2.1,4.7-6.3C650.6,148.9,649,146.8,645.9,146.7z"/>
	<path class="st0" d="M661.3,142.7v-7.6h5.3v7.6h4.9v4.4h-4.9v7.5c0,1.7,0.1,2.8,0.4,3.3c0.4,0.7,1.2,1,2.4,1h2.1v4.4h-3.8
		c-2.3,0-3.9-0.6-4.9-1.8s-1.5-3.2-1.5-6V147H658v-4.4h3.3V142.7z"/>
	<path class="st0" d="M690.8,150.8v4.4h-11.1c0.1,1.4,0.5,2.3,1.2,2.9c0.7,0.6,1.9,0.8,3.5,0.8h6.4v4.4h-7c-1.5,0-2.8-0.1-3.7-0.4
		c-1-0.3-1.9-0.8-2.7-1.5c-2.3-1.9-3.5-4.8-3.5-8.7c0-2.5,0.6-4.6,1.9-6.5c0.8-1.3,1.9-2.2,3-2.7c1.2-0.5,2.7-0.8,4.7-0.8h7.4v4.4
		h-7c-1.4,0-2.5,0.3-3,0.8c-0.6,0.5-0.9,1.5-1.1,2.9L690.8,150.8L690.8,150.8z"/>
	<path class="st0" d="M695.1,142.7h7.8c1.6,0,2.8,0.1,3.7,0.4c0.9,0.2,1.6,0.6,2.2,1.2c0.6,0.6,1,1.3,1.2,2.1s0.4,2.1,0.4,3.6v2
		h-5.1v-1.1c0-1.5-0.2-2.5-0.7-3s-1.4-0.8-2.7-0.8h-1.5v16.2h-5.3L695.1,142.7L695.1,142.7z"/>
</g>
</svg>
