<svg xmlns="http://www.w3.org/2000/svg" width="300" height="34.26"><path d="m128.8 0c-2.65 0-5.09 0.4-7.32 1.2-2.24 0.8-4.17 1.94-5.79 3.43-1.62 1.49-2.9 3.29-3.8 5.41-0.91 2.12-1.37 4.48-1.37 7.09 0 2.61 0.46 4.97 1.37 7.09 0.91 2.12 2.18 3.92 3.8 5.41 1.63 1.49 3.56 2.63 5.79 3.43 2.23 0.8 4.67 1.2 7.32 1.2 2.65 0 5.09-0.4 7.32-1.2 2.24-0.8 4.16-1.94 5.79-3.43 1.63-1.49 2.89-3.29 3.81-5.41 0.91-2.12 1.36-4.48 1.36-7.09 0-2.61-0.45-4.97-1.36-7.09-0.91-2.12-2.18-3.92-3.81-5.41-1.63-1.49-3.55-2.64-5.79-3.43C133.89 0.4 131.45 0 128.8 0ZM0 0.83 0 33.43l7.46 0 0-15.47 0-3.59 0-13.54-7.46 0zm23.39 0-14.17 15.26 14.79 17.34 10.23 0 0.2 0 8.03 0 2.7-6.27 14.74 0 2.79 6.27 8.42 0-15.4-32.6-6.17 0L34.32 33.29 18.74 15.98 33.15 0.83l-9.76 0zm51.35 0 0 32.6 12.2 0c2.52 0 4.93-0.35 7.23-1.06 2.29-0.71 4.32-1.75 6.07-3.11 1.75-1.36 3.15-3.05 4.19-5.07 1.03-2.01 1.55-4.33 1.55-6.98 0-2.97-0.53-5.51-1.6-7.6-1.07-2.09-2.51-3.78-4.33-5.09-1.82-1.3-3.95-2.25-6.39-2.83-2.44-0.58-5.02-0.88-7.73-0.88l-11.19 0zm77.41 0 0 32.6 7.47 0 0-15.47 0-3.59 0-13.54-7.47 0zm23.39 0-14.17 15.26 14.8 17.34 10.24 0 0.19 0 8.04 0 2.7-6.27 14.74 0 2.79 6.27 8.42 0-15.4-32.6-6.17 0-15.24 32.47-15.58-17.32 14.41-15.15-9.76 0zm44.22 0 10.05 32.6 6.41 0 6.8-22.57 0.1 0 6.8 22.57 6.65 0 9.91-32.6-7.56 0-5.7 21.46-0.1 0-6.37-21.46-6.94 0-6.42 20.91-0.09 0-5.41-20.91-8.14 0zm58.66 0-15.3 32.6 8.23 0 2.7-6.27 14.74 0 2.79 6.27 8.42 0-15.4-32.6-6.17 0zM128.8 6.63c1.6 0 3.04 0.26 4.33 0.78 1.29 0.52 2.4 1.25 3.33 2.19 0.93 0.94 1.63 2.05 2.13 3.34 0.49 1.29 0.74 2.69 0.74 4.19 0 1.54-0.25 2.94-0.74 4.21-0.5 1.27-1.2 2.38-2.13 3.32-0.93 0.94-2.04 1.66-3.33 2.18-1.29 0.53-2.73 0.79-4.33 0.79-1.59 0-3.04-0.26-4.33-0.79-1.29-0.52-2.4-1.25-3.33-2.18-0.92-0.93-1.64-2.05-2.13-3.32-0.5-1.27-0.74-2.68-0.74-4.21 0-1.5 0.25-2.9 0.74-4.19 0.49-1.29 1.21-2.4 2.13-3.34 0.92-0.93 2.03-1.66 3.33-2.19 1.29-0.52 2.74-0.78 4.33-0.78zm-46.6 0.83 4.4 0c1.56 0 3.05 0.19 4.48 0.58 1.42 0.38 2.65 0.96 3.71 1.73 1.05 0.77 1.89 1.74 2.51 2.92 0.62 1.18 0.93 2.57 0.93 4.17 0 1.84-0.31 3.4-0.93 4.68-0.62 1.27-1.47 2.3-2.56 3.09-1.08 0.78-2.37 1.34-3.85 1.68-1.49 0.34-3.09 0.5-4.81 0.5l-3.88 0 0-19.34zm-29.77 2.85 4.79 10.77-9.42 0 4.63-10.77zm152.15 0 4.79 10.77-9.42 0 4.63-10.77zm76.72 0 4.78 10.77-9.42 0 4.63-10.77z" fill="#303377"/></svg>